%TF.GenerationSoftware,KiCad,Pcbnew,10.0.5-1-g226df246f3*%
%TF.CreationDate,2026-09-24T20:37:28-04:00*%
%TF.ProjectId,Amplifier,416d706c-6966-4696-9572-2e6b69636164,rev?*%
%TF.SameCoordinates,Original*%
%TF.FileFunction,Soldermask,Top*%
%TF.FilePolarity,Negative*%
%FSLAX46Y46*%
G04 Gerber Fmt 4.6, Leading zero omitted, Abs format (unit mm)*
G04 Created by KiCad (PCBNEW 10.0.5-1-g226df246f3) date 2026-09-24 20:37:28*
%MOMM*%
%LPD*%
G01*
G04 APERTURE LIST*
G04 Aperture macros list*
%AMRoundRect*
0 Rectangle with rounded corners*
0 $1 Rounding radius*
0 $2 $3 $4 $5 $6 $7 $8 $9 X,Y pos of 4 corners*
0 Add a 4 corners polygon primitive as box body*
4,1,4,$2,$3,$4,$5,$6,$7,$8,$9,$2,$3,0*
0 Add four circle primitives for the rounded corners*
1,1,$1+$1,$2,$3*
1,1,$1+$1,$4,$5*
1,1,$1+$1,$6,$7*
1,1,$1+$1,$8,$9*
0 Add four rect primitives between the rounded corners*
20,1,$1+$1,$2,$3,$4,$5,0*
20,1,$1+$1,$4,$5,$6,$7,0*
20,1,$1+$1,$6,$7,$8,$9,0*
20,1,$1+$1,$8,$9,$2,$3,0*%
G04 Aperture macros list end*
%ADD10C,1.600000*%
%ADD11C,3.200000*%
%ADD12C,2.000000*%
%ADD13R,1.500000X1.500000*%
%ADD14C,1.500000*%
%ADD15RoundRect,0.250000X1.050000X1.050000X-1.050000X1.050000X-1.050000X-1.050000X1.050000X-1.050000X0*%
%ADD16C,2.600000*%
%ADD17RoundRect,0.250000X-0.550000X0.550000X-0.550000X-0.550000X0.550000X-0.550000X0.550000X0.550000X0*%
%ADD18C,2.050000*%
%ADD19C,2.250000*%
%ADD20C,2.400000*%
G04 APERTURE END LIST*
D10*
%TO.C,R9*%
X211709000Y-98298000D03*
X211709000Y-108458000D03*
%TD*%
D11*
%TO.C,H2*%
X147955000Y-110236000D03*
%TD*%
D12*
%TO.C,TP4*%
X202946000Y-92202000D03*
%TD*%
D13*
%TO.C,Q3*%
X196596000Y-87122000D03*
D14*
X196596000Y-84582000D03*
X196596000Y-82042000D03*
%TD*%
D13*
%TO.C,Q4*%
X196575000Y-97155000D03*
D14*
X196575000Y-94615000D03*
X196575000Y-92075000D03*
%TD*%
D11*
%TO.C,H3*%
X219837000Y-68453000D03*
%TD*%
D15*
%TO.C,J3*%
X176276000Y-69977000D03*
D16*
X171196000Y-69977000D03*
%TD*%
D10*
%TO.C,R1*%
X154940000Y-71628000D03*
X154940000Y-81788000D03*
%TD*%
%TO.C,C8*%
X202946000Y-78700000D03*
X202946000Y-73700000D03*
%TD*%
D13*
%TO.C,Q2*%
X172212000Y-88773000D03*
D14*
X172212000Y-86233000D03*
X172212000Y-83693000D03*
%TD*%
D10*
%TO.C,R7*%
X207264000Y-78867000D03*
X207264000Y-89027000D03*
%TD*%
%TO.C,R8*%
X196500000Y-99695000D03*
X196500000Y-109855000D03*
%TD*%
D12*
%TO.C,TP5*%
X201803000Y-100711000D03*
%TD*%
D10*
%TO.C,C1*%
X155067000Y-85257000D03*
X155067000Y-90257000D03*
%TD*%
D13*
%TO.C,Q1*%
X161544000Y-87884000D03*
D14*
X161544000Y-85344000D03*
X161544000Y-82804000D03*
%TD*%
D10*
%TO.C,R6*%
X186080000Y-79000000D03*
X175920000Y-79000000D03*
%TD*%
D12*
%TO.C,TP2*%
X190119000Y-93345000D03*
%TD*%
D10*
%TO.C,C3*%
X190500000Y-86500000D03*
X185500000Y-86500000D03*
%TD*%
D17*
%TO.C,C5*%
X196088000Y-69683621D03*
D10*
X196088000Y-72183621D03*
%TD*%
D11*
%TO.C,H4*%
X219837000Y-110363000D03*
%TD*%
%TO.C,H1*%
X148082000Y-68453000D03*
%TD*%
D18*
%TO.C,J1*%
X148209000Y-90551000D03*
D19*
X145669000Y-88011000D03*
X145669000Y-93091000D03*
X150749000Y-88011000D03*
X150749000Y-93091000D03*
%TD*%
D10*
%TO.C,R4*%
X188500000Y-99695000D03*
X188500000Y-109855000D03*
%TD*%
%TO.C,C4*%
X207264000Y-93385000D03*
X207264000Y-98385000D03*
%TD*%
%TO.C,R5*%
X199263000Y-78867000D03*
X189103000Y-78867000D03*
%TD*%
D18*
%TO.C,J2*%
X219456000Y-91694000D03*
D19*
X216916000Y-89154000D03*
X216916000Y-94234000D03*
X221996000Y-89154000D03*
X221996000Y-94234000D03*
%TD*%
D10*
%TO.C,C2*%
X176443000Y-92202000D03*
X176443000Y-97202000D03*
%TD*%
D20*
%TO.C,R2*%
X175641000Y-110236000D03*
X155321000Y-110236000D03*
%TD*%
D12*
%TO.C,TP1*%
X172212000Y-93345000D03*
%TD*%
D10*
%TO.C,C6*%
X186436000Y-68747000D03*
X186436000Y-73747000D03*
%TD*%
%TO.C,C7*%
X161925000Y-71541000D03*
X161925000Y-76541000D03*
%TD*%
D12*
%TO.C,TP3*%
X181000000Y-84500000D03*
%TD*%
D10*
%TO.C,R3*%
X180848000Y-89535000D03*
X180848000Y-99695000D03*
%TD*%
M02*
