%TF.GenerationSoftware,KiCad,Pcbnew,10.0.5-1-g226df246f3*%
%TF.CreationDate,2026-09-24T20:37:28-04:00*%
%TF.ProjectId,Amplifier,416d706c-6966-4696-9572-2e6b69636164,rev?*%
%TF.SameCoordinates,Original*%
%TF.FileFunction,Legend,Top*%
%TF.FilePolarity,Positive*%
%FSLAX46Y46*%
G04 Gerber Fmt 4.6, Leading zero omitted, Abs format (unit mm)*
G04 Created by KiCad (PCBNEW 10.0.5-1-g226df246f3) date 2026-09-24 20:37:28*
%MOMM*%
%LPD*%
G01*
G04 APERTURE LIST*
%ADD10C,0.125000*%
%ADD11C,0.300000*%
%ADD12C,0.150000*%
%ADD13C,0.120000*%
G04 APERTURE END LIST*
D10*
X147820331Y-95871119D02*
X147820331Y-94871119D01*
X148296521Y-95871119D02*
X148296521Y-94871119D01*
X148296521Y-94871119D02*
X148867949Y-95871119D01*
X148867949Y-95871119D02*
X148867949Y-94871119D01*
X165344140Y-65918738D02*
X165248902Y-65871119D01*
X165248902Y-65871119D02*
X165106045Y-65871119D01*
X165106045Y-65871119D02*
X164963188Y-65918738D01*
X164963188Y-65918738D02*
X164867950Y-66013976D01*
X164867950Y-66013976D02*
X164820331Y-66109214D01*
X164820331Y-66109214D02*
X164772712Y-66299690D01*
X164772712Y-66299690D02*
X164772712Y-66442547D01*
X164772712Y-66442547D02*
X164820331Y-66633023D01*
X164820331Y-66633023D02*
X164867950Y-66728261D01*
X164867950Y-66728261D02*
X164963188Y-66823500D01*
X164963188Y-66823500D02*
X165106045Y-66871119D01*
X165106045Y-66871119D02*
X165201283Y-66871119D01*
X165201283Y-66871119D02*
X165344140Y-66823500D01*
X165344140Y-66823500D02*
X165391759Y-66775880D01*
X165391759Y-66775880D02*
X165391759Y-66442547D01*
X165391759Y-66442547D02*
X165201283Y-66442547D01*
X165820331Y-66871119D02*
X165820331Y-65871119D01*
X165820331Y-65871119D02*
X166391759Y-66871119D01*
X166391759Y-66871119D02*
X166391759Y-65871119D01*
X166867950Y-66871119D02*
X166867950Y-65871119D01*
X166867950Y-65871119D02*
X167106045Y-65871119D01*
X167106045Y-65871119D02*
X167248902Y-65918738D01*
X167248902Y-65918738D02*
X167344140Y-66013976D01*
X167344140Y-66013976D02*
X167391759Y-66109214D01*
X167391759Y-66109214D02*
X167439378Y-66299690D01*
X167439378Y-66299690D02*
X167439378Y-66442547D01*
X167439378Y-66442547D02*
X167391759Y-66633023D01*
X167391759Y-66633023D02*
X167344140Y-66728261D01*
X167344140Y-66728261D02*
X167248902Y-66823500D01*
X167248902Y-66823500D02*
X167106045Y-66871119D01*
X167106045Y-66871119D02*
X166867950Y-66871119D01*
X179820331Y-66490166D02*
X180582236Y-66490166D01*
X180201283Y-66871119D02*
X180201283Y-66109214D01*
X181010807Y-65966357D02*
X181058426Y-65918738D01*
X181058426Y-65918738D02*
X181153664Y-65871119D01*
X181153664Y-65871119D02*
X181391759Y-65871119D01*
X181391759Y-65871119D02*
X181486997Y-65918738D01*
X181486997Y-65918738D02*
X181534616Y-65966357D01*
X181534616Y-65966357D02*
X181582235Y-66061595D01*
X181582235Y-66061595D02*
X181582235Y-66156833D01*
X181582235Y-66156833D02*
X181534616Y-66299690D01*
X181534616Y-66299690D02*
X180963188Y-66871119D01*
X180963188Y-66871119D02*
X181582235Y-66871119D01*
X182439378Y-66204452D02*
X182439378Y-66871119D01*
X182201283Y-65823500D02*
X181963188Y-66537785D01*
X181963188Y-66537785D02*
X182582235Y-66537785D01*
X182820331Y-65871119D02*
X183153664Y-66871119D01*
X183153664Y-66871119D02*
X183486997Y-65871119D01*
X218510807Y-96371119D02*
X218701283Y-96371119D01*
X218701283Y-96371119D02*
X218796521Y-96418738D01*
X218796521Y-96418738D02*
X218891759Y-96513976D01*
X218891759Y-96513976D02*
X218939378Y-96704452D01*
X218939378Y-96704452D02*
X218939378Y-97037785D01*
X218939378Y-97037785D02*
X218891759Y-97228261D01*
X218891759Y-97228261D02*
X218796521Y-97323500D01*
X218796521Y-97323500D02*
X218701283Y-97371119D01*
X218701283Y-97371119D02*
X218510807Y-97371119D01*
X218510807Y-97371119D02*
X218415569Y-97323500D01*
X218415569Y-97323500D02*
X218320331Y-97228261D01*
X218320331Y-97228261D02*
X218272712Y-97037785D01*
X218272712Y-97037785D02*
X218272712Y-96704452D01*
X218272712Y-96704452D02*
X218320331Y-96513976D01*
X218320331Y-96513976D02*
X218415569Y-96418738D01*
X218415569Y-96418738D02*
X218510807Y-96371119D01*
X219367950Y-96371119D02*
X219367950Y-97180642D01*
X219367950Y-97180642D02*
X219415569Y-97275880D01*
X219415569Y-97275880D02*
X219463188Y-97323500D01*
X219463188Y-97323500D02*
X219558426Y-97371119D01*
X219558426Y-97371119D02*
X219748902Y-97371119D01*
X219748902Y-97371119D02*
X219844140Y-97323500D01*
X219844140Y-97323500D02*
X219891759Y-97275880D01*
X219891759Y-97275880D02*
X219939378Y-97180642D01*
X219939378Y-97180642D02*
X219939378Y-96371119D01*
X220272712Y-96371119D02*
X220844140Y-96371119D01*
X220558426Y-97371119D02*
X220558426Y-96371119D01*
X201469140Y-103966357D02*
X201379855Y-103918738D01*
X201379855Y-103918738D02*
X201296521Y-103823500D01*
X201296521Y-103823500D02*
X201171521Y-103680642D01*
X201171521Y-103680642D02*
X201082236Y-103633023D01*
X201082236Y-103633023D02*
X200986997Y-103633023D01*
X201004855Y-103871119D02*
X200915569Y-103823500D01*
X200915569Y-103823500D02*
X200832236Y-103728261D01*
X200832236Y-103728261D02*
X200808426Y-103537785D01*
X200808426Y-103537785D02*
X200850093Y-103204452D01*
X200850093Y-103204452D02*
X200921521Y-103013976D01*
X200921521Y-103013976D02*
X201028664Y-102918738D01*
X201028664Y-102918738D02*
X201129855Y-102871119D01*
X201129855Y-102871119D02*
X201320331Y-102871119D01*
X201320331Y-102871119D02*
X201409616Y-102918738D01*
X201409616Y-102918738D02*
X201492950Y-103013976D01*
X201492950Y-103013976D02*
X201516759Y-103204452D01*
X201516759Y-103204452D02*
X201475093Y-103537785D01*
X201475093Y-103537785D02*
X201403664Y-103728261D01*
X201403664Y-103728261D02*
X201296521Y-103823500D01*
X201296521Y-103823500D02*
X201195331Y-103871119D01*
X201195331Y-103871119D02*
X201004855Y-103871119D01*
X201891759Y-102871119D02*
X202510807Y-102871119D01*
X202510807Y-102871119D02*
X202129855Y-103252071D01*
X202129855Y-103252071D02*
X202272712Y-103252071D01*
X202272712Y-103252071D02*
X202361997Y-103299690D01*
X202361997Y-103299690D02*
X202403664Y-103347309D01*
X202403664Y-103347309D02*
X202439378Y-103442547D01*
X202439378Y-103442547D02*
X202409616Y-103680642D01*
X202409616Y-103680642D02*
X202350093Y-103775880D01*
X202350093Y-103775880D02*
X202296521Y-103823500D01*
X202296521Y-103823500D02*
X202195331Y-103871119D01*
X202195331Y-103871119D02*
X201909616Y-103871119D01*
X201909616Y-103871119D02*
X201820331Y-103823500D01*
X201820331Y-103823500D02*
X201778664Y-103775880D01*
X203397712Y-103775880D02*
X203344140Y-103823500D01*
X203344140Y-103823500D02*
X203195331Y-103871119D01*
X203195331Y-103871119D02*
X203100093Y-103871119D01*
X203100093Y-103871119D02*
X202963188Y-103823500D01*
X202963188Y-103823500D02*
X202879855Y-103728261D01*
X202879855Y-103728261D02*
X202844140Y-103633023D01*
X202844140Y-103633023D02*
X202820331Y-103442547D01*
X202820331Y-103442547D02*
X202838188Y-103299690D01*
X202838188Y-103299690D02*
X202909616Y-103109214D01*
X202909616Y-103109214D02*
X202969140Y-103013976D01*
X202969140Y-103013976D02*
X203076283Y-102918738D01*
X203076283Y-102918738D02*
X203225093Y-102871119D01*
X203225093Y-102871119D02*
X203320331Y-102871119D01*
X203320331Y-102871119D02*
X203457236Y-102918738D01*
X203457236Y-102918738D02*
X203498902Y-102966357D01*
X202469140Y-95466357D02*
X202379855Y-95418738D01*
X202379855Y-95418738D02*
X202296521Y-95323500D01*
X202296521Y-95323500D02*
X202171521Y-95180642D01*
X202171521Y-95180642D02*
X202082236Y-95133023D01*
X202082236Y-95133023D02*
X201986997Y-95133023D01*
X202004855Y-95371119D02*
X201915569Y-95323500D01*
X201915569Y-95323500D02*
X201832236Y-95228261D01*
X201832236Y-95228261D02*
X201808426Y-95037785D01*
X201808426Y-95037785D02*
X201850093Y-94704452D01*
X201850093Y-94704452D02*
X201921521Y-94513976D01*
X201921521Y-94513976D02*
X202028664Y-94418738D01*
X202028664Y-94418738D02*
X202129855Y-94371119D01*
X202129855Y-94371119D02*
X202320331Y-94371119D01*
X202320331Y-94371119D02*
X202409616Y-94418738D01*
X202409616Y-94418738D02*
X202492950Y-94513976D01*
X202492950Y-94513976D02*
X202516759Y-94704452D01*
X202516759Y-94704452D02*
X202475093Y-95037785D01*
X202475093Y-95037785D02*
X202403664Y-95228261D01*
X202403664Y-95228261D02*
X202296521Y-95323500D01*
X202296521Y-95323500D02*
X202195331Y-95371119D01*
X202195331Y-95371119D02*
X202004855Y-95371119D01*
X203373902Y-94704452D02*
X203290569Y-95371119D01*
X203183426Y-94323500D02*
X202856045Y-95037785D01*
X202856045Y-95037785D02*
X203475093Y-95037785D01*
X204397712Y-95275880D02*
X204344140Y-95323500D01*
X204344140Y-95323500D02*
X204195331Y-95371119D01*
X204195331Y-95371119D02*
X204100093Y-95371119D01*
X204100093Y-95371119D02*
X203963188Y-95323500D01*
X203963188Y-95323500D02*
X203879855Y-95228261D01*
X203879855Y-95228261D02*
X203844140Y-95133023D01*
X203844140Y-95133023D02*
X203820331Y-94942547D01*
X203820331Y-94942547D02*
X203838188Y-94799690D01*
X203838188Y-94799690D02*
X203909616Y-94609214D01*
X203909616Y-94609214D02*
X203969140Y-94513976D01*
X203969140Y-94513976D02*
X204076283Y-94418738D01*
X204076283Y-94418738D02*
X204225093Y-94371119D01*
X204225093Y-94371119D02*
X204320331Y-94371119D01*
X204320331Y-94371119D02*
X204457236Y-94418738D01*
X204457236Y-94418738D02*
X204498902Y-94466357D01*
X169966357Y-94030859D02*
X169918738Y-94120144D01*
X169918738Y-94120144D02*
X169823500Y-94203478D01*
X169823500Y-94203478D02*
X169680642Y-94328478D01*
X169680642Y-94328478D02*
X169633023Y-94417764D01*
X169633023Y-94417764D02*
X169633023Y-94513002D01*
X169871119Y-94495144D02*
X169823500Y-94584430D01*
X169823500Y-94584430D02*
X169728261Y-94667764D01*
X169728261Y-94667764D02*
X169537785Y-94691573D01*
X169537785Y-94691573D02*
X169204452Y-94649906D01*
X169204452Y-94649906D02*
X169013976Y-94578478D01*
X169013976Y-94578478D02*
X168918738Y-94471335D01*
X168918738Y-94471335D02*
X168871119Y-94370144D01*
X168871119Y-94370144D02*
X168871119Y-94179668D01*
X168871119Y-94179668D02*
X168918738Y-94090383D01*
X168918738Y-94090383D02*
X169013976Y-94007049D01*
X169013976Y-94007049D02*
X169204452Y-93983240D01*
X169204452Y-93983240D02*
X169537785Y-94024906D01*
X169537785Y-94024906D02*
X169728261Y-94096335D01*
X169728261Y-94096335D02*
X169823500Y-94203478D01*
X169823500Y-94203478D02*
X169871119Y-94304668D01*
X169871119Y-94304668D02*
X169871119Y-94495144D01*
X168966357Y-93572525D02*
X168918738Y-93518954D01*
X168918738Y-93518954D02*
X168871119Y-93417764D01*
X168871119Y-93417764D02*
X168871119Y-93179668D01*
X168871119Y-93179668D02*
X168918738Y-93090383D01*
X168918738Y-93090383D02*
X168966357Y-93048716D01*
X168966357Y-93048716D02*
X169061595Y-93013002D01*
X169061595Y-93013002D02*
X169156833Y-93024906D01*
X169156833Y-93024906D02*
X169299690Y-93090383D01*
X169299690Y-93090383D02*
X169871119Y-93733240D01*
X169871119Y-93733240D02*
X169871119Y-93114192D01*
X169347309Y-92620144D02*
X169347309Y-92286811D01*
X169871119Y-92209430D02*
X169871119Y-92685621D01*
X169871119Y-92685621D02*
X168871119Y-92560621D01*
X168871119Y-92560621D02*
X168871119Y-92084430D01*
X178466357Y-85030859D02*
X178418738Y-85120144D01*
X178418738Y-85120144D02*
X178323500Y-85203478D01*
X178323500Y-85203478D02*
X178180642Y-85328478D01*
X178180642Y-85328478D02*
X178133023Y-85417764D01*
X178133023Y-85417764D02*
X178133023Y-85513002D01*
X178371119Y-85495144D02*
X178323500Y-85584430D01*
X178323500Y-85584430D02*
X178228261Y-85667764D01*
X178228261Y-85667764D02*
X178037785Y-85691573D01*
X178037785Y-85691573D02*
X177704452Y-85649906D01*
X177704452Y-85649906D02*
X177513976Y-85578478D01*
X177513976Y-85578478D02*
X177418738Y-85471335D01*
X177418738Y-85471335D02*
X177371119Y-85370144D01*
X177371119Y-85370144D02*
X177371119Y-85179668D01*
X177371119Y-85179668D02*
X177418738Y-85090383D01*
X177418738Y-85090383D02*
X177513976Y-85007049D01*
X177513976Y-85007049D02*
X177704452Y-84983240D01*
X177704452Y-84983240D02*
X178037785Y-85024906D01*
X178037785Y-85024906D02*
X178228261Y-85096335D01*
X178228261Y-85096335D02*
X178323500Y-85203478D01*
X178323500Y-85203478D02*
X178371119Y-85304668D01*
X178371119Y-85304668D02*
X178371119Y-85495144D01*
X177371119Y-84608240D02*
X177371119Y-83989192D01*
X177371119Y-83989192D02*
X177752071Y-84370145D01*
X177752071Y-84370145D02*
X177752071Y-84227287D01*
X177752071Y-84227287D02*
X177799690Y-84138002D01*
X177799690Y-84138002D02*
X177847309Y-84096335D01*
X177847309Y-84096335D02*
X177942547Y-84060621D01*
X177942547Y-84060621D02*
X178180642Y-84090383D01*
X178180642Y-84090383D02*
X178275880Y-84149906D01*
X178275880Y-84149906D02*
X178323500Y-84203478D01*
X178323500Y-84203478D02*
X178371119Y-84304668D01*
X178371119Y-84304668D02*
X178371119Y-84590383D01*
X178371119Y-84590383D02*
X178323500Y-84679668D01*
X178323500Y-84679668D02*
X178275880Y-84721335D01*
X177847309Y-83286811D02*
X177894928Y-83149906D01*
X177894928Y-83149906D02*
X177942547Y-83108240D01*
X177942547Y-83108240D02*
X178037785Y-83072525D01*
X178037785Y-83072525D02*
X178180642Y-83090383D01*
X178180642Y-83090383D02*
X178275880Y-83149906D01*
X178275880Y-83149906D02*
X178323500Y-83203478D01*
X178323500Y-83203478D02*
X178371119Y-83304668D01*
X178371119Y-83304668D02*
X178371119Y-83685621D01*
X178371119Y-83685621D02*
X177371119Y-83560621D01*
X177371119Y-83560621D02*
X177371119Y-83227287D01*
X177371119Y-83227287D02*
X177418738Y-83138002D01*
X177418738Y-83138002D02*
X177466357Y-83096335D01*
X177466357Y-83096335D02*
X177561595Y-83060621D01*
X177561595Y-83060621D02*
X177656833Y-83072525D01*
X177656833Y-83072525D02*
X177752071Y-83132049D01*
X177752071Y-83132049D02*
X177799690Y-83185621D01*
X177799690Y-83185621D02*
X177847309Y-83286811D01*
X177847309Y-83286811D02*
X177847309Y-83620144D01*
X187966357Y-94030859D02*
X187918738Y-94120144D01*
X187918738Y-94120144D02*
X187823500Y-94203478D01*
X187823500Y-94203478D02*
X187680642Y-94328478D01*
X187680642Y-94328478D02*
X187633023Y-94417764D01*
X187633023Y-94417764D02*
X187633023Y-94513002D01*
X187871119Y-94495144D02*
X187823500Y-94584430D01*
X187823500Y-94584430D02*
X187728261Y-94667764D01*
X187728261Y-94667764D02*
X187537785Y-94691573D01*
X187537785Y-94691573D02*
X187204452Y-94649906D01*
X187204452Y-94649906D02*
X187013976Y-94578478D01*
X187013976Y-94578478D02*
X186918738Y-94471335D01*
X186918738Y-94471335D02*
X186871119Y-94370144D01*
X186871119Y-94370144D02*
X186871119Y-94179668D01*
X186871119Y-94179668D02*
X186918738Y-94090383D01*
X186918738Y-94090383D02*
X187013976Y-94007049D01*
X187013976Y-94007049D02*
X187204452Y-93983240D01*
X187204452Y-93983240D02*
X187537785Y-94024906D01*
X187537785Y-94024906D02*
X187728261Y-94096335D01*
X187728261Y-94096335D02*
X187823500Y-94203478D01*
X187823500Y-94203478D02*
X187871119Y-94304668D01*
X187871119Y-94304668D02*
X187871119Y-94495144D01*
X187204452Y-93126097D02*
X187871119Y-93209430D01*
X186823500Y-93316573D02*
X187537785Y-93643954D01*
X187537785Y-93643954D02*
X187537785Y-93024906D01*
X187347309Y-92286811D02*
X187394928Y-92149906D01*
X187394928Y-92149906D02*
X187442547Y-92108240D01*
X187442547Y-92108240D02*
X187537785Y-92072525D01*
X187537785Y-92072525D02*
X187680642Y-92090383D01*
X187680642Y-92090383D02*
X187775880Y-92149906D01*
X187775880Y-92149906D02*
X187823500Y-92203478D01*
X187823500Y-92203478D02*
X187871119Y-92304668D01*
X187871119Y-92304668D02*
X187871119Y-92685621D01*
X187871119Y-92685621D02*
X186871119Y-92560621D01*
X186871119Y-92560621D02*
X186871119Y-92227287D01*
X186871119Y-92227287D02*
X186918738Y-92138002D01*
X186918738Y-92138002D02*
X186966357Y-92096335D01*
X186966357Y-92096335D02*
X187061595Y-92060621D01*
X187061595Y-92060621D02*
X187156833Y-92072525D01*
X187156833Y-92072525D02*
X187252071Y-92132049D01*
X187252071Y-92132049D02*
X187299690Y-92185621D01*
X187299690Y-92185621D02*
X187347309Y-92286811D01*
X187347309Y-92286811D02*
X187347309Y-92620144D01*
D11*
G36*
X149963171Y-99195020D02*
G01*
X150155879Y-99195020D01*
X150155879Y-99409160D01*
X149963171Y-99409160D01*
X149963171Y-99705000D01*
X149688581Y-99705000D01*
X149688581Y-99409160D01*
X149031782Y-99409160D01*
X149031782Y-99195020D01*
X149266438Y-99195020D01*
X149688581Y-99195020D01*
X149688581Y-98725067D01*
X149692153Y-98605815D01*
X149697832Y-98523200D01*
X149664541Y-98585903D01*
X149601478Y-98688339D01*
X149266438Y-99195020D01*
X149031782Y-99195020D01*
X149031782Y-99193005D01*
X149641412Y-98262990D01*
X149963171Y-98262990D01*
X149963171Y-99195020D01*
G37*
G36*
X152067476Y-99291008D02*
G01*
X152056974Y-99394167D01*
X152027133Y-99480621D01*
X151978713Y-99553864D01*
X151910122Y-99616065D01*
X151830309Y-99661678D01*
X151729840Y-99696874D01*
X151604317Y-99720007D01*
X151448595Y-99728447D01*
X151306904Y-99721211D01*
X151189493Y-99701149D01*
X151092634Y-99670268D01*
X151013080Y-99629895D01*
X150941802Y-99574826D01*
X150884742Y-99507833D01*
X150840840Y-99427432D01*
X150810205Y-99331216D01*
X151102289Y-99282948D01*
X151129471Y-99354900D01*
X151167984Y-99409582D01*
X151218060Y-99450102D01*
X151277820Y-99477305D01*
X151355837Y-99495352D01*
X151456747Y-99502034D01*
X151570071Y-99494393D01*
X151650651Y-99474465D01*
X151706427Y-99445565D01*
X151743520Y-99409111D01*
X151765618Y-99364352D01*
X151773377Y-99308502D01*
X151763978Y-99251412D01*
X151737015Y-99206836D01*
X151695024Y-99171343D01*
X151634525Y-99140157D01*
X151552800Y-99114431D01*
X151380909Y-99075403D01*
X151155412Y-99014311D01*
X151094143Y-98988770D01*
X151040648Y-98959906D01*
X150992992Y-98925132D01*
X150953545Y-98884435D01*
X150922035Y-98837073D01*
X150897766Y-98780754D01*
X150883053Y-98718541D01*
X150877800Y-98644100D01*
X150887576Y-98549070D01*
X150915390Y-98469269D01*
X150960609Y-98401492D01*
X151024803Y-98343773D01*
X151099447Y-98301381D01*
X151192896Y-98268741D01*
X151309087Y-98247336D01*
X151452625Y-98239542D01*
X151591301Y-98246053D01*
X151701607Y-98263752D01*
X151788393Y-98290332D01*
X151855901Y-98324173D01*
X151915445Y-98371543D01*
X151964118Y-98432326D01*
X152002386Y-98508685D01*
X152029557Y-98603800D01*
X151736557Y-98644009D01*
X151715586Y-98584570D01*
X151685047Y-98537827D01*
X151644783Y-98501584D01*
X151596238Y-98476521D01*
X151531647Y-98459876D01*
X151446580Y-98453682D01*
X151332865Y-98463195D01*
X151257467Y-98487462D01*
X151209459Y-98522399D01*
X151181647Y-98567650D01*
X151171898Y-98626698D01*
X151179581Y-98679236D01*
X151201116Y-98719113D01*
X151235684Y-98751141D01*
X151287670Y-98780204D01*
X151360214Y-98804610D01*
X151520311Y-98843311D01*
X151712839Y-98889787D01*
X151817982Y-98925010D01*
X151901018Y-98967257D01*
X151959856Y-99012296D01*
X152005831Y-99066686D01*
X152039815Y-99131365D01*
X152060225Y-99204030D01*
X152067476Y-99291008D01*
G37*
G36*
X152579562Y-99722585D02*
G01*
X152497620Y-99714088D01*
X152433747Y-99690639D01*
X152383831Y-99653525D01*
X152347519Y-99603167D01*
X152323958Y-99535296D01*
X152315230Y-99444423D01*
X152315230Y-98791837D01*
X152174912Y-98791837D01*
X152174912Y-98597114D01*
X152329610Y-98597114D01*
X152419827Y-98339193D01*
X152600170Y-98339193D01*
X152600170Y-98597114D01*
X152810188Y-98597114D01*
X152810188Y-98791837D01*
X152600170Y-98791837D01*
X152600170Y-99366387D01*
X152608891Y-99440472D01*
X152630853Y-99485547D01*
X152653984Y-99506113D01*
X152684916Y-99519086D01*
X152726199Y-99523832D01*
X152822461Y-99509453D01*
X152822461Y-99687780D01*
X152711436Y-99713447D01*
X152579562Y-99722585D01*
G37*
G36*
X153541897Y-98581102D02*
G01*
X153628962Y-98601830D01*
X153700899Y-98634219D01*
X153760262Y-98677714D01*
X153808678Y-98733230D01*
X153843928Y-98799439D01*
X153866125Y-98878501D01*
X153874018Y-98973370D01*
X153874018Y-99379210D01*
X153880464Y-99465222D01*
X153894993Y-99508445D01*
X153922176Y-99534663D01*
X153965151Y-99543982D01*
X154028715Y-99537846D01*
X154028715Y-99693551D01*
X153982554Y-99704816D01*
X153941612Y-99712968D01*
X153898015Y-99718097D01*
X153844343Y-99720204D01*
X153773877Y-99713388D01*
X153721927Y-99695084D01*
X153683967Y-99666989D01*
X153655458Y-99628383D01*
X153634436Y-99577220D01*
X153621960Y-99510185D01*
X153615823Y-99510185D01*
X153560868Y-99590757D01*
X153498091Y-99650892D01*
X153426810Y-99693368D01*
X153345310Y-99719384D01*
X153251016Y-99728447D01*
X153170893Y-99722299D01*
X153103776Y-99705015D01*
X153047359Y-99677675D01*
X152999873Y-99640428D01*
X152961664Y-99593843D01*
X152933696Y-99538342D01*
X152916033Y-99472138D01*
X152909747Y-99392857D01*
X152911783Y-99370417D01*
X153209983Y-99370417D01*
X153214666Y-99422297D01*
X153227220Y-99460698D01*
X153246345Y-99488845D01*
X153287916Y-99517573D01*
X153343156Y-99527588D01*
X153407939Y-99518269D01*
X153466621Y-99490402D01*
X153516020Y-99446552D01*
X153554274Y-99387453D01*
X153578097Y-99319894D01*
X153586056Y-99248326D01*
X153586056Y-99191540D01*
X153438503Y-99193555D01*
X153345598Y-99202351D01*
X153296079Y-99215812D01*
X153258811Y-99238853D01*
X153231965Y-99271133D01*
X153216012Y-99312209D01*
X153209983Y-99370417D01*
X152911783Y-99370417D01*
X152917459Y-99307845D01*
X152939168Y-99237349D01*
X152973835Y-99178506D01*
X153021946Y-99129350D01*
X153079623Y-99091991D01*
X153151079Y-99063348D01*
X153239157Y-99044350D01*
X153347278Y-99036751D01*
X153586056Y-99032629D01*
X153586056Y-98975843D01*
X153581001Y-98903482D01*
X153567694Y-98850873D01*
X153548137Y-98813360D01*
X153518965Y-98784772D01*
X153478877Y-98766770D01*
X153424123Y-98760146D01*
X153372000Y-98764873D01*
X153334058Y-98777457D01*
X153306795Y-98796508D01*
X153277987Y-98840965D01*
X153260175Y-98916950D01*
X152959939Y-98902570D01*
X152980382Y-98824273D01*
X153011872Y-98758497D01*
X153054154Y-98703237D01*
X153107950Y-98657198D01*
X153169247Y-98622620D01*
X153242844Y-98596502D01*
X153331028Y-98579692D01*
X153436488Y-98573667D01*
X153541897Y-98581102D01*
G37*
G36*
X154623981Y-98582442D02*
G01*
X154702107Y-98607097D01*
X154766901Y-98646444D01*
X154820625Y-98701123D01*
X154864209Y-98773518D01*
X154869338Y-98773518D01*
X154873918Y-98677256D01*
X154883718Y-98597114D01*
X155156293Y-98597114D01*
X155150157Y-98853294D01*
X155150157Y-99672027D01*
X155140646Y-99789802D01*
X155114145Y-99886111D01*
X155072507Y-99965034D01*
X155015884Y-100029598D01*
X154946062Y-100079756D01*
X154860120Y-100117428D01*
X154754675Y-100141727D01*
X154625523Y-100150498D01*
X154492042Y-100140833D01*
X154384902Y-100114218D01*
X154299092Y-100073104D01*
X154242805Y-100029867D01*
X154199367Y-99979328D01*
X154167513Y-99920664D01*
X154146960Y-99852370D01*
X154434922Y-99818572D01*
X154459453Y-99878486D01*
X154500959Y-99922986D01*
X154557315Y-99950786D01*
X154633674Y-99960905D01*
X154710043Y-99951790D01*
X154766812Y-99926893D01*
X154808888Y-99887266D01*
X154837715Y-99835182D01*
X154856981Y-99764174D01*
X154864209Y-99668638D01*
X154864209Y-99610386D01*
X154866316Y-99501026D01*
X154864209Y-99501026D01*
X154819752Y-99574092D01*
X154763794Y-99629767D01*
X154695107Y-99670232D01*
X154611009Y-99695826D01*
X154507645Y-99705000D01*
X154413877Y-99695364D01*
X154334390Y-99667846D01*
X154266185Y-99622955D01*
X154207410Y-99559095D01*
X154163769Y-99484756D01*
X154130447Y-99392921D01*
X154108749Y-99280032D01*
X154100889Y-99141898D01*
X154401125Y-99141898D01*
X154410039Y-99271213D01*
X154433333Y-99363444D01*
X154467230Y-99427562D01*
X154510193Y-99470432D01*
X154563217Y-99496104D01*
X154629644Y-99505148D01*
X154684576Y-99498918D01*
X154731041Y-99481052D01*
X154770944Y-99451585D01*
X154805316Y-99408977D01*
X154837155Y-99341873D01*
X154858401Y-99252735D01*
X154866316Y-99135669D01*
X154858480Y-99022223D01*
X154837307Y-98934665D01*
X154805316Y-98867674D01*
X154770936Y-98824892D01*
X154731327Y-98795410D01*
X154685511Y-98777603D01*
X154631659Y-98771412D01*
X154564830Y-98780581D01*
X154511405Y-98806640D01*
X154468032Y-98850241D01*
X154433749Y-98915586D01*
X154410158Y-99009737D01*
X154401125Y-99141898D01*
X154100889Y-99141898D01*
X154108934Y-99003503D01*
X154131189Y-98889970D01*
X154165469Y-98797186D01*
X154210524Y-98721678D01*
X154270807Y-98657540D01*
X154342314Y-98611932D01*
X154427279Y-98583656D01*
X154529169Y-98573667D01*
X154623981Y-98582442D01*
G37*
G36*
X155996975Y-98580681D02*
G01*
X156079233Y-98600626D01*
X156150510Y-98632493D01*
X156212512Y-98676159D01*
X156266377Y-98732394D01*
X156317986Y-98813768D01*
X156357372Y-98915344D01*
X156383069Y-99041417D01*
X156392406Y-99197127D01*
X156392406Y-99205370D01*
X155681293Y-99205370D01*
X155689144Y-99313361D01*
X155710041Y-99393640D01*
X155741194Y-99452483D01*
X155786577Y-99498614D01*
X155842331Y-99526161D01*
X155911828Y-99535831D01*
X155984467Y-99526830D01*
X156038057Y-99502247D01*
X156077438Y-99462938D01*
X156104535Y-99406046D01*
X156376011Y-99429402D01*
X156329514Y-99521504D01*
X156271448Y-99594542D01*
X156201393Y-99651193D01*
X156117694Y-99692766D01*
X156017611Y-99719074D01*
X155897540Y-99728447D01*
X155773730Y-99718106D01*
X155670854Y-99689058D01*
X155584976Y-99642973D01*
X155513224Y-99579703D01*
X155457589Y-99502302D01*
X155415777Y-99406888D01*
X155388789Y-99289668D01*
X155379043Y-99145928D01*
X155387564Y-99025027D01*
X155683400Y-99025027D01*
X156113695Y-99025027D01*
X156101577Y-98936602D01*
X156079422Y-98870767D01*
X156049123Y-98822520D01*
X156007558Y-98785222D01*
X155957883Y-98762840D01*
X155897540Y-98755017D01*
X155833383Y-98763400D01*
X155782351Y-98787079D01*
X155741285Y-98826183D01*
X155711971Y-98876434D01*
X155692126Y-98941428D01*
X155683400Y-99025027D01*
X155387564Y-99025027D01*
X155388806Y-99007401D01*
X155415989Y-98893266D01*
X155458416Y-98799224D01*
X155515330Y-98721861D01*
X155588002Y-98658778D01*
X155674562Y-98612854D01*
X155777811Y-98583943D01*
X155901570Y-98573667D01*
X155996975Y-98580681D01*
G37*
G36*
X157983916Y-98269921D02*
G01*
X158092927Y-98288866D01*
X158179723Y-98317556D01*
X158248224Y-98354489D01*
X158307538Y-98405576D01*
X158349282Y-98466224D01*
X158374992Y-98538289D01*
X158384054Y-98624866D01*
X158376098Y-98704207D01*
X158353266Y-98772439D01*
X158315910Y-98831862D01*
X158265169Y-98880078D01*
X158197343Y-98918287D01*
X158108365Y-98945801D01*
X158221696Y-98968915D01*
X158308899Y-99006176D01*
X158375261Y-99055985D01*
X158425499Y-99120822D01*
X158456213Y-99198611D01*
X158467035Y-99293114D01*
X158457270Y-99388440D01*
X158429409Y-99469086D01*
X158384006Y-99538128D01*
X158319482Y-99597472D01*
X158244159Y-99641899D01*
X158152887Y-99675509D01*
X158042587Y-99697200D01*
X157909612Y-99705000D01*
X157187233Y-99705000D01*
X157187233Y-99480601D01*
X157489484Y-99480601D01*
X157883967Y-99480601D01*
X157980096Y-99473516D01*
X158048686Y-99454983D01*
X158096550Y-99427845D01*
X158132955Y-99388199D01*
X158155533Y-99336705D01*
X158163686Y-99269576D01*
X158156027Y-99209087D01*
X158134532Y-99161471D01*
X158099275Y-99123585D01*
X158047540Y-99094208D01*
X157974280Y-99074275D01*
X157872701Y-99066701D01*
X157489484Y-99066701D01*
X157489484Y-99480601D01*
X157187233Y-99480601D01*
X157187233Y-98843311D01*
X157489484Y-98843311D01*
X157835790Y-98843311D01*
X157920631Y-98837300D01*
X157980555Y-98821669D01*
X158021811Y-98798981D01*
X158053283Y-98765494D01*
X158072705Y-98722184D01*
X158079697Y-98665899D01*
X158071986Y-98604536D01*
X158051058Y-98560118D01*
X158017690Y-98528237D01*
X157974253Y-98507105D01*
X157914526Y-98492791D01*
X157833775Y-98487388D01*
X157489484Y-98487388D01*
X157489484Y-98843311D01*
X157187233Y-98843311D01*
X157187233Y-98262990D01*
X157848155Y-98262990D01*
X157983916Y-98269921D01*
G37*
G36*
X159099014Y-99728447D02*
G01*
X158985401Y-99721334D01*
X158892284Y-99701632D01*
X158816170Y-99671180D01*
X158754173Y-99630902D01*
X158702140Y-99578484D01*
X158657735Y-99510544D01*
X158621262Y-99424105D01*
X158593889Y-99315371D01*
X158894125Y-99271224D01*
X158911490Y-99344563D01*
X158934734Y-99398708D01*
X158962726Y-99437737D01*
X158999430Y-99467168D01*
X159044716Y-99485316D01*
X159101120Y-99491775D01*
X159158242Y-99484538D01*
X159202815Y-99464293D01*
X159237866Y-99431234D01*
X159262419Y-99388363D01*
X159278528Y-99331845D01*
X159284486Y-99257852D01*
X159284486Y-98499661D01*
X158996615Y-98499661D01*
X158996615Y-98262990D01*
X159585729Y-98262990D01*
X159585729Y-99250525D01*
X159576825Y-99362585D01*
X159551760Y-99456526D01*
X159511999Y-99535619D01*
X159457593Y-99602326D01*
X159390136Y-99655657D01*
X159309739Y-99694829D01*
X159213822Y-99719619D01*
X159099014Y-99728447D01*
G37*
G36*
X160520690Y-98496639D02*
G01*
X160520690Y-99705000D01*
X160218440Y-99705000D01*
X160218440Y-98496639D01*
X159752150Y-98496639D01*
X159752150Y-98262990D01*
X160987896Y-98262990D01*
X160987896Y-98496639D01*
X160520690Y-98496639D01*
G37*
G36*
X162975148Y-99705000D02*
G01*
X162675920Y-99705000D01*
X162547875Y-99334605D01*
X161997596Y-99334605D01*
X161869552Y-99705000D01*
X161567301Y-99705000D01*
X161785668Y-99107093D01*
X162065282Y-99107093D01*
X162480281Y-99107093D01*
X162337857Y-98693743D01*
X162293802Y-98554890D01*
X162272278Y-98484457D01*
X162266141Y-98506897D01*
X162241503Y-98590611D01*
X162065282Y-99107093D01*
X161785668Y-99107093D01*
X162093950Y-98262990D01*
X162450514Y-98262990D01*
X162975148Y-99705000D01*
G37*
G36*
X163829509Y-99705000D02*
G01*
X163829509Y-99082272D01*
X163819923Y-98959271D01*
X163795669Y-98878726D01*
X163761277Y-98828365D01*
X163717598Y-98799787D01*
X163661531Y-98789913D01*
X163608243Y-98799375D01*
X163561645Y-98827884D01*
X163519565Y-98879214D01*
X163490343Y-98941042D01*
X163471565Y-99016922D01*
X163464794Y-99110024D01*
X163464794Y-99705000D01*
X163176831Y-99705000D01*
X163176831Y-98844868D01*
X163174267Y-98699055D01*
X163168588Y-98597114D01*
X163443270Y-98597114D01*
X163451421Y-98700245D01*
X163456550Y-98815467D01*
X163460672Y-98815467D01*
X163501630Y-98734261D01*
X163545916Y-98674077D01*
X163593296Y-98631094D01*
X163648707Y-98599622D01*
X163711487Y-98580359D01*
X163783439Y-98573667D01*
X163866453Y-98581112D01*
X163933616Y-98601840D01*
X163988153Y-98634573D01*
X164032282Y-98679625D01*
X164066973Y-98738857D01*
X164091826Y-98815467D01*
X164097963Y-98815467D01*
X164140922Y-98732803D01*
X164186047Y-98672413D01*
X164233151Y-98630087D01*
X164288379Y-98599635D01*
X164354504Y-98580481D01*
X164434102Y-98573667D01*
X164513346Y-98581170D01*
X164579281Y-98602358D01*
X164634582Y-98636380D01*
X164681031Y-98683942D01*
X164716004Y-98740417D01*
X164742596Y-98810092D01*
X164759869Y-98895673D01*
X164766120Y-99000389D01*
X164766120Y-99705000D01*
X164480172Y-99705000D01*
X164480172Y-99082272D01*
X164470586Y-98959271D01*
X164446332Y-98878726D01*
X164411940Y-98828365D01*
X164368261Y-98799787D01*
X164312194Y-98789913D01*
X164260380Y-98798664D01*
X164215121Y-98824870D01*
X164174350Y-98871521D01*
X164145546Y-98928404D01*
X164125308Y-99002074D01*
X164115457Y-99096652D01*
X164115457Y-99705000D01*
X163829509Y-99705000D01*
G37*
G36*
X165779873Y-98583482D02*
G01*
X165859266Y-98611554D01*
X165927528Y-98657480D01*
X165986479Y-98723052D01*
X166030160Y-98798992D01*
X166063519Y-98892578D01*
X166085232Y-99007355D01*
X166093091Y-99147485D01*
X166084930Y-99288901D01*
X166062351Y-99404952D01*
X166027579Y-99499822D01*
X165981899Y-99577047D01*
X165920651Y-99643218D01*
X165849401Y-99689814D01*
X165766182Y-99718419D01*
X165667834Y-99728447D01*
X165591357Y-99722492D01*
X165524069Y-99705384D01*
X165464410Y-99677705D01*
X165411481Y-99639179D01*
X165367474Y-99590908D01*
X165331786Y-99531709D01*
X165325558Y-99531709D01*
X165331786Y-99716815D01*
X165331786Y-100138775D01*
X165043824Y-100138775D01*
X165043824Y-99155728D01*
X165327664Y-99155728D01*
X165335572Y-99274687D01*
X165356796Y-99365336D01*
X165388572Y-99433615D01*
X165423108Y-99477325D01*
X165462796Y-99507347D01*
X165508589Y-99525432D01*
X165562321Y-99531709D01*
X165628538Y-99522389D01*
X165681743Y-99495790D01*
X165725218Y-99450992D01*
X165759792Y-99383397D01*
X165783684Y-99285472D01*
X165792855Y-99147485D01*
X165783833Y-99013633D01*
X165760300Y-98918460D01*
X165726173Y-98852585D01*
X165683128Y-98808778D01*
X165630279Y-98782682D01*
X165564336Y-98773518D01*
X165509704Y-98779962D01*
X165463317Y-98798509D01*
X165423264Y-98829301D01*
X165388572Y-98874177D01*
X165356734Y-98944084D01*
X165335536Y-99036036D01*
X165327664Y-99155728D01*
X165043824Y-99155728D01*
X165043824Y-98851829D01*
X165035580Y-98597114D01*
X165315391Y-98597114D01*
X165324092Y-98669929D01*
X165327664Y-98777548D01*
X165331786Y-98777548D01*
X165377037Y-98704260D01*
X165433312Y-98648544D01*
X165501748Y-98608184D01*
X165584874Y-98582752D01*
X165686335Y-98573667D01*
X165779873Y-98583482D01*
G37*
G36*
X166326099Y-99705000D02*
G01*
X166326099Y-98186786D01*
X166614061Y-98186786D01*
X166614061Y-99705000D01*
X166326099Y-99705000D01*
G37*
G36*
X166909351Y-98398911D02*
G01*
X166909351Y-98186786D01*
X167197313Y-98186786D01*
X167197313Y-98398911D01*
X166909351Y-98398911D01*
G37*
G36*
X166909351Y-99705000D02*
G01*
X166909351Y-98597114D01*
X167197313Y-98597114D01*
X167197313Y-99705000D01*
X166909351Y-99705000D01*
G37*
G36*
X167830757Y-98791837D02*
G01*
X167830757Y-99705000D01*
X167543802Y-99705000D01*
X167543802Y-98791837D01*
X167381960Y-98791837D01*
X167381960Y-98597114D01*
X167543802Y-98597114D01*
X167543802Y-98481801D01*
X167553872Y-98384983D01*
X167581161Y-98312791D01*
X167623669Y-98259234D01*
X167681402Y-98221192D01*
X167760180Y-98196141D01*
X167866569Y-98186786D01*
X167949787Y-98190630D01*
X168049018Y-98203181D01*
X168049018Y-98388653D01*
X167965029Y-98379402D01*
X167898195Y-98387812D01*
X167860982Y-98408436D01*
X167839503Y-98444647D01*
X167830757Y-98510652D01*
X167830757Y-98597114D01*
X168049018Y-98597114D01*
X168049018Y-98791837D01*
X167830757Y-98791837D01*
G37*
G36*
X168191625Y-98398911D02*
G01*
X168191625Y-98186786D01*
X168479588Y-98186786D01*
X168479588Y-98398911D01*
X168191625Y-98398911D01*
G37*
G36*
X168191625Y-99705000D02*
G01*
X168191625Y-98597114D01*
X168479588Y-98597114D01*
X168479588Y-99705000D01*
X168191625Y-99705000D01*
G37*
G36*
X169328238Y-98580681D02*
G01*
X169410496Y-98600626D01*
X169481773Y-98632493D01*
X169543775Y-98676159D01*
X169597640Y-98732394D01*
X169649249Y-98813768D01*
X169688635Y-98915344D01*
X169714332Y-99041417D01*
X169723669Y-99197127D01*
X169723669Y-99205370D01*
X169012556Y-99205370D01*
X169020407Y-99313361D01*
X169041304Y-99393640D01*
X169072457Y-99452483D01*
X169117840Y-99498614D01*
X169173594Y-99526161D01*
X169243091Y-99535831D01*
X169315730Y-99526830D01*
X169369320Y-99502247D01*
X169408701Y-99462938D01*
X169435799Y-99406046D01*
X169707274Y-99429402D01*
X169660777Y-99521504D01*
X169602711Y-99594542D01*
X169532656Y-99651193D01*
X169448957Y-99692766D01*
X169348874Y-99719074D01*
X169228803Y-99728447D01*
X169104993Y-99718106D01*
X169002118Y-99689058D01*
X168916239Y-99642973D01*
X168844487Y-99579703D01*
X168788852Y-99502302D01*
X168747040Y-99406888D01*
X168720052Y-99289668D01*
X168710306Y-99145928D01*
X168718827Y-99025027D01*
X169014663Y-99025027D01*
X169444958Y-99025027D01*
X169432840Y-98936602D01*
X169410685Y-98870767D01*
X169380386Y-98822520D01*
X169338821Y-98785222D01*
X169289146Y-98762840D01*
X169228803Y-98755017D01*
X169164646Y-98763400D01*
X169113614Y-98787079D01*
X169072548Y-98826183D01*
X169043234Y-98876434D01*
X169023390Y-98941428D01*
X169014663Y-99025027D01*
X168718827Y-99025027D01*
X168720069Y-99007401D01*
X168747252Y-98893266D01*
X168789679Y-98799224D01*
X168846593Y-98721861D01*
X168919265Y-98658778D01*
X169005825Y-98612854D01*
X169109074Y-98583943D01*
X169232833Y-98573667D01*
X169328238Y-98580681D01*
G37*
G36*
X169941381Y-99705000D02*
G01*
X169941381Y-98857233D01*
X169938817Y-98705191D01*
X169933138Y-98597114D01*
X170207820Y-98597114D01*
X170215971Y-98708397D01*
X170221100Y-98831862D01*
X170225222Y-98831862D01*
X170268469Y-98724591D01*
X170299960Y-98667456D01*
X170336546Y-98625324D01*
X170377904Y-98596748D01*
X170426522Y-98579877D01*
X170490653Y-98573667D01*
X170542919Y-98577928D01*
X170579771Y-98589054D01*
X170579771Y-98829847D01*
X170511808Y-98818013D01*
X170456856Y-98814460D01*
X170389669Y-98824381D01*
X170334835Y-98852980D01*
X170289244Y-98901654D01*
X170258182Y-98962931D01*
X170237234Y-99046910D01*
X170229344Y-99160216D01*
X170229344Y-99705000D01*
X169941381Y-99705000D01*
G37*
G36*
X149140409Y-102225000D02*
G01*
X149140409Y-100782990D01*
X150275680Y-100782990D01*
X150275680Y-101016639D01*
X149442659Y-101016639D01*
X149442659Y-101380896D01*
X150213215Y-101380896D01*
X150213215Y-101614545D01*
X149442659Y-101614545D01*
X149442659Y-101991351D01*
X150317720Y-101991351D01*
X150317720Y-102225000D01*
X149140409Y-102225000D01*
G37*
G36*
X150829806Y-102242585D02*
G01*
X150747864Y-102234088D01*
X150683991Y-102210639D01*
X150634076Y-102173525D01*
X150597763Y-102123167D01*
X150574202Y-102055296D01*
X150565474Y-101964423D01*
X150565474Y-101311837D01*
X150425157Y-101311837D01*
X150425157Y-101117114D01*
X150579854Y-101117114D01*
X150670071Y-100859193D01*
X150850414Y-100859193D01*
X150850414Y-101117114D01*
X151060432Y-101117114D01*
X151060432Y-101311837D01*
X150850414Y-101311837D01*
X150850414Y-101886387D01*
X150859135Y-101960472D01*
X150881097Y-102005547D01*
X150904228Y-102026113D01*
X150935160Y-102039086D01*
X150976443Y-102043832D01*
X151072705Y-102029453D01*
X151072705Y-102207780D01*
X150961681Y-102233447D01*
X150829806Y-102242585D01*
G37*
G36*
X151528920Y-101335559D02*
G01*
X151573555Y-101254977D01*
X151622424Y-101194622D01*
X151675466Y-101151094D01*
X151736533Y-101119744D01*
X151805921Y-101100407D01*
X151885484Y-101093667D01*
X151972523Y-101101188D01*
X152044892Y-101122347D01*
X152105398Y-101156023D01*
X152156045Y-101202477D01*
X152194944Y-101258825D01*
X152224342Y-101328644D01*
X152243394Y-101414788D01*
X152250292Y-101520756D01*
X152250292Y-102225000D01*
X151963337Y-102225000D01*
X151963337Y-101602638D01*
X151955854Y-101499826D01*
X151936201Y-101425934D01*
X151907353Y-101374004D01*
X151870349Y-101338822D01*
X151824098Y-101317489D01*
X151765592Y-101309913D01*
X151700479Y-101319877D01*
X151645192Y-101349118D01*
X151597064Y-101399764D01*
X151562585Y-101462631D01*
X151540813Y-101538478D01*
X151533042Y-101630390D01*
X151533042Y-102225000D01*
X151245080Y-102225000D01*
X151245080Y-100706786D01*
X151533042Y-100706786D01*
X151533042Y-101118854D01*
X151524799Y-101335559D01*
X151528920Y-101335559D01*
G37*
G36*
X153074416Y-101101102D02*
G01*
X153161481Y-101121830D01*
X153233418Y-101154219D01*
X153292781Y-101197714D01*
X153341197Y-101253230D01*
X153376447Y-101319439D01*
X153398644Y-101398501D01*
X153406537Y-101493370D01*
X153406537Y-101899210D01*
X153412983Y-101985222D01*
X153427512Y-102028445D01*
X153454695Y-102054663D01*
X153497670Y-102063982D01*
X153561235Y-102057846D01*
X153561235Y-102213551D01*
X153515073Y-102224816D01*
X153474132Y-102232968D01*
X153430534Y-102238097D01*
X153376862Y-102240204D01*
X153306397Y-102233388D01*
X153254446Y-102215084D01*
X153216486Y-102186989D01*
X153187977Y-102148383D01*
X153166955Y-102097220D01*
X153154479Y-102030185D01*
X153148342Y-102030185D01*
X153093387Y-102110757D01*
X153030610Y-102170892D01*
X152959329Y-102213368D01*
X152877829Y-102239384D01*
X152783535Y-102248447D01*
X152703412Y-102242299D01*
X152636295Y-102225015D01*
X152579879Y-102197675D01*
X152532392Y-102160428D01*
X152494183Y-102113843D01*
X152466215Y-102058342D01*
X152448552Y-101992138D01*
X152442267Y-101912857D01*
X152444302Y-101890417D01*
X152742502Y-101890417D01*
X152747185Y-101942297D01*
X152759740Y-101980698D01*
X152778864Y-102008845D01*
X152820435Y-102037573D01*
X152875676Y-102047588D01*
X152940458Y-102038269D01*
X152999140Y-102010402D01*
X153048539Y-101966552D01*
X153086793Y-101907453D01*
X153110616Y-101839894D01*
X153118575Y-101768326D01*
X153118575Y-101711540D01*
X152971022Y-101713555D01*
X152878117Y-101722351D01*
X152828598Y-101735812D01*
X152791330Y-101758853D01*
X152764484Y-101791133D01*
X152748531Y-101832209D01*
X152742502Y-101890417D01*
X152444302Y-101890417D01*
X152449978Y-101827845D01*
X152471687Y-101757349D01*
X152506354Y-101698506D01*
X152554466Y-101649350D01*
X152612143Y-101611991D01*
X152683598Y-101583348D01*
X152771676Y-101564350D01*
X152879797Y-101556751D01*
X153118575Y-101552629D01*
X153118575Y-101495843D01*
X153113520Y-101423482D01*
X153100213Y-101370873D01*
X153080656Y-101333360D01*
X153051484Y-101304772D01*
X153011396Y-101286770D01*
X152956642Y-101280146D01*
X152904520Y-101284873D01*
X152866577Y-101297457D01*
X152839314Y-101316508D01*
X152810507Y-101360965D01*
X152792694Y-101436950D01*
X152492459Y-101422570D01*
X152512901Y-101344273D01*
X152544391Y-101278497D01*
X152586674Y-101223237D01*
X152640470Y-101177198D01*
X152701766Y-101142620D01*
X152775363Y-101116502D01*
X152863548Y-101099692D01*
X152969007Y-101093667D01*
X153074416Y-101101102D01*
G37*
G36*
X154412116Y-102225000D02*
G01*
X154412116Y-101602272D01*
X154404636Y-101499614D01*
X154384993Y-101425821D01*
X154356153Y-101373952D01*
X154319152Y-101338802D01*
X154272895Y-101317484D01*
X154214371Y-101309913D01*
X154149251Y-101319869D01*
X154093964Y-101349084D01*
X154045843Y-101399672D01*
X154011361Y-101462479D01*
X153989591Y-101538237D01*
X153981821Y-101630024D01*
X153981821Y-102225000D01*
X153693859Y-102225000D01*
X153693859Y-101364868D01*
X153691294Y-101219055D01*
X153685615Y-101117114D01*
X153960297Y-101117114D01*
X153968449Y-101220245D01*
X153973578Y-101335467D01*
X153977699Y-101335467D01*
X154022273Y-101254949D01*
X154071112Y-101194621D01*
X154124153Y-101151094D01*
X154185278Y-101119741D01*
X154254699Y-101100405D01*
X154334263Y-101093667D01*
X154421258Y-101101181D01*
X154493600Y-101122322D01*
X154554091Y-101155970D01*
X154604732Y-101202385D01*
X154643676Y-101258697D01*
X154673101Y-101328462D01*
X154692168Y-101414527D01*
X154699071Y-101520389D01*
X154699071Y-102225000D01*
X154412116Y-102225000D01*
G37*
G36*
X155855499Y-101016639D02*
G01*
X155855499Y-101462962D01*
X156594273Y-101462962D01*
X156594273Y-101696611D01*
X155855499Y-101696611D01*
X155855499Y-102225000D01*
X155553249Y-102225000D01*
X155553249Y-100782990D01*
X156617903Y-100782990D01*
X156617903Y-101016639D01*
X155855499Y-101016639D01*
G37*
G36*
X156841660Y-102225000D02*
G01*
X156841660Y-100706786D01*
X157129623Y-100706786D01*
X157129623Y-102225000D01*
X156841660Y-102225000D01*
G37*
G36*
X158056303Y-101104200D02*
G01*
X158167746Y-101133598D01*
X158259634Y-101179778D01*
X158335327Y-101242411D01*
X158395204Y-101320452D01*
X158439670Y-101415275D01*
X158468099Y-101530335D01*
X158478301Y-101670049D01*
X158467898Y-101804646D01*
X158438589Y-101917899D01*
X158392113Y-102013580D01*
X158328641Y-102094574D01*
X158249385Y-102160132D01*
X158156004Y-102207852D01*
X158045705Y-102237827D01*
X157914741Y-102248447D01*
X157786512Y-102237848D01*
X157678231Y-102207878D01*
X157586255Y-102160042D01*
X157507894Y-102094116D01*
X157445339Y-102012985D01*
X157399503Y-101917300D01*
X157370597Y-101804219D01*
X157360341Y-101670049D01*
X157662591Y-101670049D01*
X157670985Y-101793541D01*
X157693352Y-101886005D01*
X157726613Y-101954256D01*
X157762516Y-101997200D01*
X157804415Y-102027101D01*
X157853450Y-102045331D01*
X157911627Y-102051709D01*
X157990686Y-102041678D01*
X158052944Y-102013520D01*
X158102503Y-101967310D01*
X158140951Y-101899467D01*
X158167049Y-101803355D01*
X158176967Y-101670049D01*
X158168148Y-101537813D01*
X158145299Y-101444796D01*
X158112395Y-101381171D01*
X158063438Y-101331714D01*
X158002257Y-101301940D01*
X157924908Y-101291412D01*
X157846817Y-101301344D01*
X157785292Y-101329238D01*
X157736285Y-101375041D01*
X157698244Y-101442330D01*
X157672410Y-101537709D01*
X157662591Y-101670049D01*
X157360341Y-101670049D01*
X157370590Y-101536417D01*
X157399485Y-101423766D01*
X157445316Y-101328416D01*
X157507894Y-101247540D01*
X157586182Y-101182097D01*
X157679008Y-101134377D01*
X157789275Y-101104334D01*
X157920878Y-101093667D01*
X158056303Y-101104200D01*
G37*
G36*
X158978755Y-101117114D02*
G01*
X158978755Y-101740574D01*
X158986216Y-101843487D01*
X159005804Y-101917411D01*
X159034540Y-101969322D01*
X159071368Y-102004458D01*
X159117358Y-102025744D01*
X159175492Y-102033299D01*
X159240605Y-102023335D01*
X159295892Y-101994094D01*
X159344020Y-101943449D01*
X159378499Y-101880582D01*
X159400271Y-101804734D01*
X159408042Y-101712822D01*
X159408042Y-101117114D01*
X159696004Y-101117114D01*
X159696004Y-101977246D01*
X159704156Y-102225000D01*
X159429566Y-102225000D01*
X159417293Y-102007654D01*
X159412164Y-102007654D01*
X159368221Y-102087427D01*
X159319539Y-102147497D01*
X159266168Y-102191111D01*
X159204759Y-102222427D01*
X159135174Y-102241727D01*
X159055600Y-102248447D01*
X158968575Y-102240959D01*
X158896205Y-102219898D01*
X158835694Y-102186387D01*
X158785040Y-102140186D01*
X158746156Y-102084057D01*
X158716759Y-102014404D01*
X158697697Y-101928350D01*
X158690792Y-101822365D01*
X158690792Y-101117114D01*
X158978755Y-101117114D01*
G37*
G36*
X159989462Y-102225000D02*
G01*
X159989462Y-101377233D01*
X159986898Y-101225191D01*
X159981219Y-101117114D01*
X160255901Y-101117114D01*
X160264052Y-101228397D01*
X160269181Y-101351862D01*
X160273303Y-101351862D01*
X160316550Y-101244591D01*
X160348041Y-101187456D01*
X160384627Y-101145324D01*
X160425985Y-101116748D01*
X160474603Y-101099877D01*
X160538734Y-101093667D01*
X160591000Y-101097928D01*
X160627852Y-101109054D01*
X160627852Y-101349847D01*
X160559889Y-101338013D01*
X160504937Y-101334460D01*
X160437750Y-101344381D01*
X160382916Y-101372980D01*
X160337325Y-101421654D01*
X160306263Y-101482931D01*
X160285315Y-101566910D01*
X160277424Y-101680216D01*
X160277424Y-102225000D01*
X159989462Y-102225000D01*
G37*
G36*
X161523979Y-102225000D02*
G01*
X161523979Y-101602272D01*
X161516500Y-101499614D01*
X161496856Y-101425821D01*
X161468016Y-101373952D01*
X161431015Y-101338802D01*
X161384758Y-101317484D01*
X161326234Y-101309913D01*
X161261114Y-101319869D01*
X161205828Y-101349084D01*
X161157706Y-101399672D01*
X161123224Y-101462479D01*
X161101454Y-101538237D01*
X161093684Y-101630024D01*
X161093684Y-102225000D01*
X160805722Y-102225000D01*
X160805722Y-101364868D01*
X160803157Y-101219055D01*
X160797479Y-101117114D01*
X161072160Y-101117114D01*
X161080312Y-101220245D01*
X161085441Y-101335467D01*
X161089562Y-101335467D01*
X161134137Y-101254949D01*
X161182975Y-101194621D01*
X161236017Y-101151094D01*
X161297141Y-101119741D01*
X161366562Y-101100405D01*
X161446127Y-101093667D01*
X161533121Y-101101181D01*
X161605463Y-101122322D01*
X161665954Y-101155970D01*
X161716595Y-101202385D01*
X161755539Y-101258697D01*
X161784964Y-101328462D01*
X161804031Y-101414527D01*
X161810934Y-101520389D01*
X161810934Y-102225000D01*
X161523979Y-102225000D01*
G37*
G36*
X162719387Y-101104200D02*
G01*
X162830830Y-101133598D01*
X162922719Y-101179778D01*
X162998412Y-101242411D01*
X163058288Y-101320452D01*
X163102755Y-101415275D01*
X163131183Y-101530335D01*
X163141386Y-101670049D01*
X163130983Y-101804646D01*
X163101673Y-101917899D01*
X163055197Y-102013580D01*
X162991726Y-102094574D01*
X162912470Y-102160132D01*
X162819088Y-102207852D01*
X162708789Y-102237827D01*
X162577826Y-102248447D01*
X162449597Y-102237848D01*
X162341316Y-102207878D01*
X162249339Y-102160042D01*
X162170978Y-102094116D01*
X162108423Y-102012985D01*
X162062588Y-101917300D01*
X162033681Y-101804219D01*
X162023425Y-101670049D01*
X162325676Y-101670049D01*
X162334069Y-101793541D01*
X162356436Y-101886005D01*
X162389698Y-101954256D01*
X162425600Y-101997200D01*
X162467500Y-102027101D01*
X162516535Y-102045331D01*
X162574712Y-102051709D01*
X162653770Y-102041678D01*
X162716028Y-102013520D01*
X162765588Y-101967310D01*
X162804036Y-101899467D01*
X162830134Y-101803355D01*
X162840051Y-101670049D01*
X162831232Y-101537813D01*
X162808384Y-101444796D01*
X162775479Y-101381171D01*
X162726522Y-101331714D01*
X162665342Y-101301940D01*
X162587992Y-101291412D01*
X162509901Y-101301344D01*
X162448376Y-101329238D01*
X162399370Y-101375041D01*
X162361328Y-101442330D01*
X162335495Y-101537709D01*
X162325676Y-101670049D01*
X162023425Y-101670049D01*
X162033675Y-101536417D01*
X162062569Y-101423766D01*
X162108401Y-101328416D01*
X162170978Y-101247540D01*
X162249267Y-101182097D01*
X162342093Y-101134377D01*
X162452359Y-101104334D01*
X162583962Y-101093667D01*
X162719387Y-101104200D01*
G37*
G36*
X163513703Y-102658775D02*
G01*
X163413383Y-102655213D01*
X163332353Y-102645494D01*
X163332353Y-102440605D01*
X163431729Y-102448756D01*
X163490010Y-102443499D01*
X163533670Y-102429339D01*
X163571133Y-102404467D01*
X163606393Y-102365134D01*
X163637293Y-102311679D01*
X163678659Y-102213276D01*
X163240121Y-101117114D01*
X163544478Y-101117114D01*
X163718684Y-101635886D01*
X163760739Y-101762820D01*
X163822182Y-101977612D01*
X163847827Y-101880434D01*
X163914414Y-101639916D01*
X164078271Y-101117114D01*
X164379605Y-101117114D01*
X163940976Y-102282977D01*
X163874857Y-102422262D01*
X163813992Y-102516752D01*
X163758068Y-102577076D01*
X163690718Y-102621525D01*
X163610404Y-102649047D01*
X163513703Y-102658775D01*
G37*
G36*
X149749031Y-104745000D02*
G01*
X149404740Y-104745000D01*
X149008243Y-103637114D01*
X149312508Y-103637114D01*
X149506223Y-104256453D01*
X149578947Y-104512358D01*
X149620987Y-104364988D01*
X149856651Y-103637114D01*
X150157894Y-103637114D01*
X149749031Y-104745000D01*
G37*
G36*
X150239227Y-104745000D02*
G01*
X150239227Y-104545148D01*
X150306056Y-104424851D01*
X150399603Y-104303347D01*
X150512657Y-104187083D01*
X150661461Y-104057334D01*
X150799271Y-103936656D01*
X150874044Y-103854460D01*
X150909279Y-103798856D01*
X150928825Y-103747045D01*
X150935044Y-103697656D01*
X150926572Y-103626354D01*
X150903860Y-103575708D01*
X150868237Y-103540216D01*
X150817292Y-103517539D01*
X150745450Y-103509070D01*
X150685940Y-103515216D01*
X150640030Y-103532102D01*
X150604583Y-103558712D01*
X150577469Y-103594637D01*
X150556146Y-103643129D01*
X150541569Y-103707456D01*
X150251591Y-103691061D01*
X150271422Y-103592309D01*
X150303432Y-103510049D01*
X150346776Y-103441592D01*
X150401618Y-103384964D01*
X150466693Y-103340664D01*
X150543744Y-103307826D01*
X150635049Y-103286966D01*
X150743435Y-103279542D01*
X150861342Y-103287272D01*
X150958081Y-103308714D01*
X151037311Y-103341962D01*
X151102015Y-103386154D01*
X151155799Y-103443562D01*
X151194448Y-103511075D01*
X151218530Y-103590716D01*
X151227036Y-103685382D01*
X151216765Y-103783193D01*
X151187011Y-103868839D01*
X151141582Y-103947427D01*
X151084612Y-104020056D01*
X151019038Y-104086685D01*
X150945760Y-104149658D01*
X150797749Y-104267535D01*
X150667049Y-104383306D01*
X150614983Y-104444824D01*
X150579487Y-104508328D01*
X151249568Y-104508328D01*
X151249568Y-104745000D01*
X150239227Y-104745000D01*
G37*
G36*
X151475431Y-104745000D02*
G01*
X151475431Y-104434323D01*
X151771545Y-104434323D01*
X151771545Y-104745000D01*
X151475431Y-104745000D01*
G37*
G36*
X152605166Y-103287784D02*
G01*
X152691091Y-103311067D01*
X152764000Y-103348161D01*
X152826030Y-103399144D01*
X152878423Y-103465381D01*
X152925958Y-103558606D01*
X152963290Y-103678670D01*
X152988156Y-103831523D01*
X152997308Y-104023995D01*
X152987797Y-104212307D01*
X152961792Y-104363643D01*
X152922411Y-104484239D01*
X152871737Y-104579494D01*
X152816617Y-104647422D01*
X152752862Y-104699386D01*
X152679405Y-104736899D01*
X152594365Y-104760245D01*
X152495206Y-104768447D01*
X152393849Y-104759761D01*
X152307437Y-104735081D01*
X152233144Y-104695393D01*
X152168940Y-104640199D01*
X152113770Y-104567567D01*
X152067658Y-104474299D01*
X152031693Y-104356140D01*
X152007925Y-104207981D01*
X151999241Y-104023995D01*
X152287203Y-104023995D01*
X152292926Y-104211529D01*
X152307170Y-104333939D01*
X152325006Y-104407286D01*
X152346543Y-104458859D01*
X152370642Y-104493765D01*
X152402726Y-104519801D01*
X152443985Y-104536127D01*
X152497221Y-104542034D01*
X152549593Y-104535918D01*
X152590928Y-104518831D01*
X152623800Y-104491201D01*
X152648618Y-104454638D01*
X152670515Y-104401890D01*
X152688372Y-104328260D01*
X152702660Y-104206232D01*
X152708339Y-104023995D01*
X152702729Y-103834777D01*
X152688830Y-103712585D01*
X152671382Y-103639515D01*
X152650175Y-103588118D01*
X152626365Y-103553308D01*
X152594629Y-103527192D01*
X152553876Y-103510852D01*
X152501343Y-103504948D01*
X152445332Y-103510986D01*
X152402463Y-103527562D01*
X152369635Y-103553766D01*
X152344995Y-103589037D01*
X152323447Y-103640533D01*
X152306162Y-103713135D01*
X152292660Y-103834854D01*
X152287203Y-104023995D01*
X151999241Y-104023995D01*
X152006186Y-103850424D01*
X152025117Y-103710884D01*
X152053554Y-103599928D01*
X152098122Y-103495669D01*
X152152553Y-103416335D01*
X152216495Y-103357578D01*
X152292655Y-103315824D01*
X152386804Y-103289158D01*
X152503358Y-103279542D01*
X152605166Y-103287784D01*
G37*
G36*
X153810454Y-104199849D02*
G01*
X153810454Y-103887341D01*
X154105560Y-103887341D01*
X154105560Y-104199849D01*
X153810454Y-104199849D01*
G37*
G36*
X155021013Y-104745000D02*
G01*
X155021013Y-104545148D01*
X155087842Y-104424851D01*
X155181389Y-104303347D01*
X155294443Y-104187083D01*
X155443248Y-104057334D01*
X155581058Y-103936656D01*
X155655831Y-103854460D01*
X155691065Y-103798856D01*
X155710612Y-103747045D01*
X155716830Y-103697656D01*
X155708359Y-103626354D01*
X155685646Y-103575708D01*
X155650024Y-103540216D01*
X155599079Y-103517539D01*
X155527237Y-103509070D01*
X155467727Y-103515216D01*
X155421816Y-103532102D01*
X155386370Y-103558712D01*
X155359256Y-103594637D01*
X155337933Y-103643129D01*
X155323355Y-103707456D01*
X155033378Y-103691061D01*
X155053208Y-103592309D01*
X155085219Y-103510049D01*
X155128563Y-103441592D01*
X155183404Y-103384964D01*
X155248479Y-103340664D01*
X155325530Y-103307826D01*
X155416836Y-103286966D01*
X155525222Y-103279542D01*
X155643129Y-103287272D01*
X155739868Y-103308714D01*
X155819098Y-103341962D01*
X155883801Y-103386154D01*
X155937586Y-103443562D01*
X155976235Y-103511075D01*
X156000317Y-103590716D01*
X156008823Y-103685382D01*
X155998552Y-103783193D01*
X155968797Y-103868839D01*
X155923369Y-103947427D01*
X155866399Y-104020056D01*
X155800825Y-104086685D01*
X155727547Y-104149658D01*
X155579535Y-104267535D01*
X155448835Y-104383306D01*
X155396769Y-104444824D01*
X155361274Y-104508328D01*
X156031354Y-104508328D01*
X156031354Y-104745000D01*
X155021013Y-104745000D01*
G37*
G36*
X156803700Y-103287784D02*
G01*
X156889626Y-103311067D01*
X156962534Y-103348161D01*
X157024565Y-103399144D01*
X157076958Y-103465381D01*
X157124492Y-103558606D01*
X157161824Y-103678670D01*
X157186691Y-103831523D01*
X157195843Y-104023995D01*
X157186331Y-104212307D01*
X157160327Y-104363643D01*
X157120946Y-104484239D01*
X157070272Y-104579494D01*
X157015151Y-104647422D01*
X156951397Y-104699386D01*
X156877939Y-104736899D01*
X156792900Y-104760245D01*
X156693741Y-104768447D01*
X156592384Y-104759761D01*
X156505972Y-104735081D01*
X156431679Y-104695393D01*
X156367474Y-104640199D01*
X156312304Y-104567567D01*
X156266193Y-104474299D01*
X156230227Y-104356140D01*
X156206460Y-104207981D01*
X156197775Y-104023995D01*
X156485737Y-104023995D01*
X156491460Y-104211529D01*
X156505704Y-104333939D01*
X156523540Y-104407286D01*
X156545078Y-104458859D01*
X156569177Y-104493765D01*
X156601260Y-104519801D01*
X156642519Y-104536127D01*
X156695756Y-104542034D01*
X156748128Y-104535918D01*
X156789463Y-104518831D01*
X156822335Y-104491201D01*
X156847153Y-104454638D01*
X156869049Y-104401890D01*
X156886906Y-104328260D01*
X156901194Y-104206232D01*
X156906873Y-104023995D01*
X156901264Y-103834777D01*
X156887364Y-103712585D01*
X156869916Y-103639515D01*
X156848710Y-103588118D01*
X156824899Y-103553308D01*
X156793164Y-103527192D01*
X156752411Y-103510852D01*
X156699877Y-103504948D01*
X156643867Y-103510986D01*
X156600998Y-103527562D01*
X156568169Y-103553766D01*
X156543530Y-103589037D01*
X156521981Y-103640533D01*
X156504697Y-103713135D01*
X156491194Y-103834854D01*
X156485737Y-104023995D01*
X156197775Y-104023995D01*
X156204721Y-103850424D01*
X156223651Y-103710884D01*
X156252089Y-103599928D01*
X156296656Y-103495669D01*
X156351088Y-103416335D01*
X156415029Y-103357578D01*
X156491190Y-103315824D01*
X156585338Y-103289158D01*
X156701892Y-103279542D01*
X156803700Y-103287784D01*
G37*
G36*
X157354021Y-104745000D02*
G01*
X157354021Y-104545148D01*
X157420850Y-104424851D01*
X157514397Y-104303347D01*
X157627451Y-104187083D01*
X157776256Y-104057334D01*
X157914065Y-103936656D01*
X157988838Y-103854460D01*
X158024073Y-103798856D01*
X158043619Y-103747045D01*
X158049838Y-103697656D01*
X158041367Y-103626354D01*
X158018654Y-103575708D01*
X157983031Y-103540216D01*
X157932086Y-103517539D01*
X157860245Y-103509070D01*
X157800734Y-103515216D01*
X157754824Y-103532102D01*
X157719378Y-103558712D01*
X157692263Y-103594637D01*
X157670940Y-103643129D01*
X157656363Y-103707456D01*
X157366386Y-103691061D01*
X157386216Y-103592309D01*
X157418227Y-103510049D01*
X157461571Y-103441592D01*
X157516412Y-103384964D01*
X157581487Y-103340664D01*
X157658538Y-103307826D01*
X157749844Y-103286966D01*
X157858230Y-103279542D01*
X157976136Y-103287272D01*
X158072875Y-103308714D01*
X158152105Y-103341962D01*
X158216809Y-103386154D01*
X158270594Y-103443562D01*
X158309243Y-103511075D01*
X158333324Y-103590716D01*
X158341830Y-103685382D01*
X158331559Y-103783193D01*
X158301805Y-103868839D01*
X158256377Y-103947427D01*
X158199406Y-104020056D01*
X158133833Y-104086685D01*
X158060554Y-104149658D01*
X157912543Y-104267535D01*
X157781843Y-104383306D01*
X157729777Y-104444824D01*
X157694282Y-104508328D01*
X158364362Y-104508328D01*
X158364362Y-104745000D01*
X157354021Y-104745000D01*
G37*
G36*
X159180451Y-103289626D02*
G01*
X159275223Y-103317345D01*
X159350065Y-103360417D01*
X159411424Y-103421018D01*
X159461683Y-103502912D01*
X159500183Y-103611010D01*
X159228615Y-103648838D01*
X159201616Y-103584297D01*
X159164517Y-103541627D01*
X159116648Y-103516115D01*
X159054409Y-103507055D01*
X159000229Y-103514173D01*
X158952895Y-103535035D01*
X158910580Y-103570545D01*
X158872509Y-103623650D01*
X158838795Y-103704596D01*
X158815418Y-103819254D01*
X158806472Y-103977650D01*
X158841144Y-103930443D01*
X158883548Y-103891380D01*
X158934516Y-103859863D01*
X159020480Y-103829399D01*
X159119988Y-103818831D01*
X159215254Y-103827142D01*
X159296439Y-103850778D01*
X159366179Y-103888816D01*
X159426360Y-103941746D01*
X159474126Y-104006057D01*
X159509173Y-104081607D01*
X159531275Y-104170559D01*
X159539109Y-104275687D01*
X159530152Y-104390222D01*
X159504898Y-104486668D01*
X159464806Y-104568240D01*
X159409965Y-104637380D01*
X159341686Y-104693175D01*
X159261233Y-104733834D01*
X159166206Y-104759391D01*
X159053401Y-104768447D01*
X158952057Y-104760645D01*
X158864191Y-104738381D01*
X158787525Y-104702618D01*
X158720298Y-104653287D01*
X158661392Y-104589295D01*
X158605776Y-104497805D01*
X158562991Y-104382365D01*
X158537887Y-104253155D01*
X158826897Y-104253155D01*
X158834093Y-104335283D01*
X158854388Y-104403905D01*
X158886797Y-104461617D01*
X158931750Y-104508020D01*
X158983379Y-104534884D01*
X159044151Y-104544049D01*
X159105698Y-104535964D01*
X159155298Y-104513002D01*
X159195826Y-104474897D01*
X159224723Y-104425948D01*
X159243348Y-104363496D01*
X159250139Y-104283930D01*
X159242949Y-104203841D01*
X159223408Y-104142608D01*
X159193261Y-104095985D01*
X159151451Y-104060368D01*
X159100310Y-104038641D01*
X159037007Y-104030956D01*
X158976078Y-104038127D01*
X158925978Y-104058506D01*
X158884233Y-104091955D01*
X158853042Y-104135664D01*
X158833742Y-104188549D01*
X158826897Y-104253155D01*
X158537887Y-104253155D01*
X158534899Y-104237775D01*
X158524646Y-104057883D01*
X158531480Y-103895531D01*
X158550478Y-103759555D01*
X158579699Y-103646293D01*
X158617681Y-103552453D01*
X158663498Y-103475181D01*
X158724019Y-103404553D01*
X158792615Y-103350641D01*
X158870306Y-103311888D01*
X158958835Y-103287913D01*
X159060546Y-103279542D01*
X159180451Y-103289626D01*
G37*
G36*
X159696279Y-104326795D02*
G01*
X159696279Y-104076751D01*
X160229156Y-104076751D01*
X160229156Y-104326795D01*
X159696279Y-104326795D01*
G37*
G36*
X161002235Y-103287784D02*
G01*
X161088160Y-103311067D01*
X161161069Y-103348161D01*
X161223099Y-103399144D01*
X161275492Y-103465381D01*
X161323027Y-103558606D01*
X161360359Y-103678670D01*
X161385225Y-103831523D01*
X161394378Y-104023995D01*
X161384866Y-104212307D01*
X161358861Y-104363643D01*
X161319480Y-104484239D01*
X161268806Y-104579494D01*
X161213686Y-104647422D01*
X161149931Y-104699386D01*
X161076474Y-104736899D01*
X160991434Y-104760245D01*
X160892275Y-104768447D01*
X160790918Y-104759761D01*
X160704506Y-104735081D01*
X160630213Y-104695393D01*
X160566009Y-104640199D01*
X160510839Y-104567567D01*
X160464727Y-104474299D01*
X160428762Y-104356140D01*
X160404994Y-104207981D01*
X160396310Y-104023995D01*
X160684272Y-104023995D01*
X160689995Y-104211529D01*
X160704239Y-104333939D01*
X160722075Y-104407286D01*
X160743612Y-104458859D01*
X160767711Y-104493765D01*
X160799795Y-104519801D01*
X160841054Y-104536127D01*
X160894290Y-104542034D01*
X160946662Y-104535918D01*
X160987998Y-104518831D01*
X161020869Y-104491201D01*
X161045688Y-104454638D01*
X161067584Y-104401890D01*
X161085441Y-104328260D01*
X161099729Y-104206232D01*
X161105408Y-104023995D01*
X161099798Y-103834777D01*
X161085899Y-103712585D01*
X161068451Y-103639515D01*
X161047244Y-103588118D01*
X161023434Y-103553308D01*
X160991698Y-103527192D01*
X160950945Y-103510852D01*
X160898412Y-103504948D01*
X160842401Y-103510986D01*
X160799532Y-103527562D01*
X160766704Y-103553766D01*
X160742064Y-103589037D01*
X160720516Y-103640533D01*
X160703231Y-103713135D01*
X160689729Y-103834854D01*
X160684272Y-104023995D01*
X160396310Y-104023995D01*
X160403255Y-103850424D01*
X160422186Y-103710884D01*
X160450623Y-103599928D01*
X160495191Y-103495669D01*
X160549622Y-103416335D01*
X160613564Y-103357578D01*
X160689725Y-103315824D01*
X160783873Y-103289158D01*
X160900427Y-103279542D01*
X161002235Y-103287784D01*
G37*
G36*
X162160068Y-103287549D02*
G01*
X162247984Y-103310210D01*
X162323111Y-103346316D01*
X162387507Y-103395811D01*
X162442454Y-103459794D01*
X162493398Y-103550925D01*
X162533080Y-103667621D01*
X162559378Y-103815565D01*
X162569033Y-104001372D01*
X162562100Y-104162915D01*
X162542856Y-104297716D01*
X162513297Y-104409561D01*
X162474913Y-104501840D01*
X162428624Y-104577479D01*
X162367786Y-104646224D01*
X162298888Y-104698853D01*
X162220888Y-104736764D01*
X162132058Y-104760246D01*
X162030111Y-104768447D01*
X161905312Y-104758256D01*
X161807611Y-104730389D01*
X161731341Y-104687389D01*
X161668983Y-104626314D01*
X161617684Y-104542660D01*
X161578201Y-104431025D01*
X161848761Y-104393290D01*
X161876718Y-104460780D01*
X161915720Y-104505549D01*
X161966565Y-104532442D01*
X162033225Y-104542034D01*
X162090144Y-104534809D01*
X162138951Y-104513836D01*
X162181658Y-104478535D01*
X162219155Y-104426263D01*
X162252769Y-104345972D01*
X162276364Y-104234426D01*
X162286291Y-104082796D01*
X162255524Y-104129487D01*
X162213576Y-104169494D01*
X162158705Y-104203238D01*
X162067020Y-104235769D01*
X161967554Y-104246744D01*
X161874411Y-104238090D01*
X161794480Y-104213354D01*
X161725182Y-104173213D01*
X161664754Y-104116776D01*
X161617425Y-104049164D01*
X161582503Y-103969561D01*
X161560402Y-103875692D01*
X161552697Y-103766715D01*
X161844639Y-103766715D01*
X161851327Y-103845421D01*
X161869873Y-103908816D01*
X161898953Y-103959972D01*
X161939746Y-104000183D01*
X161989354Y-104024195D01*
X162050628Y-104032604D01*
X162109417Y-104025358D01*
X162159788Y-104004372D01*
X162203768Y-103969223D01*
X162236923Y-103923604D01*
X162257465Y-103868024D01*
X162264767Y-103799688D01*
X162257446Y-103711403D01*
X162237249Y-103640985D01*
X162205783Y-103584815D01*
X162161688Y-103540024D01*
X162110473Y-103513908D01*
X162049620Y-103504948D01*
X161989431Y-103513005D01*
X161940252Y-103536044D01*
X161899411Y-103574557D01*
X161870271Y-103623782D01*
X161851489Y-103686619D01*
X161844639Y-103766715D01*
X161552697Y-103766715D01*
X161552555Y-103764700D01*
X161561661Y-103651571D01*
X161587340Y-103556455D01*
X161628166Y-103476093D01*
X161684172Y-103408045D01*
X161753450Y-103353905D01*
X161836621Y-103313972D01*
X161936486Y-103288603D01*
X162056673Y-103279542D01*
X162160068Y-103287549D01*
G37*
D12*
X214533819Y-103544666D02*
X214057628Y-103877999D01*
X214533819Y-104116094D02*
X213533819Y-104116094D01*
X213533819Y-104116094D02*
X213533819Y-103735142D01*
X213533819Y-103735142D02*
X213581438Y-103639904D01*
X213581438Y-103639904D02*
X213629057Y-103592285D01*
X213629057Y-103592285D02*
X213724295Y-103544666D01*
X213724295Y-103544666D02*
X213867152Y-103544666D01*
X213867152Y-103544666D02*
X213962390Y-103592285D01*
X213962390Y-103592285D02*
X214010009Y-103639904D01*
X214010009Y-103639904D02*
X214057628Y-103735142D01*
X214057628Y-103735142D02*
X214057628Y-104116094D01*
X214533819Y-103068475D02*
X214533819Y-102877999D01*
X214533819Y-102877999D02*
X214486200Y-102782761D01*
X214486200Y-102782761D02*
X214438580Y-102735142D01*
X214438580Y-102735142D02*
X214295723Y-102639904D01*
X214295723Y-102639904D02*
X214105247Y-102592285D01*
X214105247Y-102592285D02*
X213724295Y-102592285D01*
X213724295Y-102592285D02*
X213629057Y-102639904D01*
X213629057Y-102639904D02*
X213581438Y-102687523D01*
X213581438Y-102687523D02*
X213533819Y-102782761D01*
X213533819Y-102782761D02*
X213533819Y-102973237D01*
X213533819Y-102973237D02*
X213581438Y-103068475D01*
X213581438Y-103068475D02*
X213629057Y-103116094D01*
X213629057Y-103116094D02*
X213724295Y-103163713D01*
X213724295Y-103163713D02*
X213962390Y-103163713D01*
X213962390Y-103163713D02*
X214057628Y-103116094D01*
X214057628Y-103116094D02*
X214105247Y-103068475D01*
X214105247Y-103068475D02*
X214152866Y-102973237D01*
X214152866Y-102973237D02*
X214152866Y-102782761D01*
X214152866Y-102782761D02*
X214105247Y-102687523D01*
X214105247Y-102687523D02*
X214057628Y-102639904D01*
X214057628Y-102639904D02*
X213962390Y-102592285D01*
X201684095Y-89156819D02*
X202255523Y-89156819D01*
X201969809Y-90156819D02*
X201969809Y-89156819D01*
X202588857Y-90156819D02*
X202588857Y-89156819D01*
X202588857Y-89156819D02*
X202969809Y-89156819D01*
X202969809Y-89156819D02*
X203065047Y-89204438D01*
X203065047Y-89204438D02*
X203112666Y-89252057D01*
X203112666Y-89252057D02*
X203160285Y-89347295D01*
X203160285Y-89347295D02*
X203160285Y-89490152D01*
X203160285Y-89490152D02*
X203112666Y-89585390D01*
X203112666Y-89585390D02*
X203065047Y-89633009D01*
X203065047Y-89633009D02*
X202969809Y-89680628D01*
X202969809Y-89680628D02*
X202588857Y-89680628D01*
X204017428Y-89490152D02*
X204017428Y-90156819D01*
X203779333Y-89109200D02*
X203541238Y-89823485D01*
X203541238Y-89823485D02*
X204160285Y-89823485D01*
X193586057Y-84677238D02*
X193538438Y-84772476D01*
X193538438Y-84772476D02*
X193443200Y-84867714D01*
X193443200Y-84867714D02*
X193300342Y-85010571D01*
X193300342Y-85010571D02*
X193252723Y-85105809D01*
X193252723Y-85105809D02*
X193252723Y-85201047D01*
X193490819Y-85153428D02*
X193443200Y-85248666D01*
X193443200Y-85248666D02*
X193347961Y-85343904D01*
X193347961Y-85343904D02*
X193157485Y-85391523D01*
X193157485Y-85391523D02*
X192824152Y-85391523D01*
X192824152Y-85391523D02*
X192633676Y-85343904D01*
X192633676Y-85343904D02*
X192538438Y-85248666D01*
X192538438Y-85248666D02*
X192490819Y-85153428D01*
X192490819Y-85153428D02*
X192490819Y-84962952D01*
X192490819Y-84962952D02*
X192538438Y-84867714D01*
X192538438Y-84867714D02*
X192633676Y-84772476D01*
X192633676Y-84772476D02*
X192824152Y-84724857D01*
X192824152Y-84724857D02*
X193157485Y-84724857D01*
X193157485Y-84724857D02*
X193347961Y-84772476D01*
X193347961Y-84772476D02*
X193443200Y-84867714D01*
X193443200Y-84867714D02*
X193490819Y-84962952D01*
X193490819Y-84962952D02*
X193490819Y-85153428D01*
X192490819Y-84391523D02*
X192490819Y-83772476D01*
X192490819Y-83772476D02*
X192871771Y-84105809D01*
X192871771Y-84105809D02*
X192871771Y-83962952D01*
X192871771Y-83962952D02*
X192919390Y-83867714D01*
X192919390Y-83867714D02*
X192967009Y-83820095D01*
X192967009Y-83820095D02*
X193062247Y-83772476D01*
X193062247Y-83772476D02*
X193300342Y-83772476D01*
X193300342Y-83772476D02*
X193395580Y-83820095D01*
X193395580Y-83820095D02*
X193443200Y-83867714D01*
X193443200Y-83867714D02*
X193490819Y-83962952D01*
X193490819Y-83962952D02*
X193490819Y-84248666D01*
X193490819Y-84248666D02*
X193443200Y-84343904D01*
X193443200Y-84343904D02*
X193395580Y-84391523D01*
X193565057Y-94710238D02*
X193517438Y-94805476D01*
X193517438Y-94805476D02*
X193422200Y-94900714D01*
X193422200Y-94900714D02*
X193279342Y-95043571D01*
X193279342Y-95043571D02*
X193231723Y-95138809D01*
X193231723Y-95138809D02*
X193231723Y-95234047D01*
X193469819Y-95186428D02*
X193422200Y-95281666D01*
X193422200Y-95281666D02*
X193326961Y-95376904D01*
X193326961Y-95376904D02*
X193136485Y-95424523D01*
X193136485Y-95424523D02*
X192803152Y-95424523D01*
X192803152Y-95424523D02*
X192612676Y-95376904D01*
X192612676Y-95376904D02*
X192517438Y-95281666D01*
X192517438Y-95281666D02*
X192469819Y-95186428D01*
X192469819Y-95186428D02*
X192469819Y-94995952D01*
X192469819Y-94995952D02*
X192517438Y-94900714D01*
X192517438Y-94900714D02*
X192612676Y-94805476D01*
X192612676Y-94805476D02*
X192803152Y-94757857D01*
X192803152Y-94757857D02*
X193136485Y-94757857D01*
X193136485Y-94757857D02*
X193326961Y-94805476D01*
X193326961Y-94805476D02*
X193422200Y-94900714D01*
X193422200Y-94900714D02*
X193469819Y-94995952D01*
X193469819Y-94995952D02*
X193469819Y-95186428D01*
X192803152Y-93900714D02*
X193469819Y-93900714D01*
X192422200Y-94138809D02*
X193136485Y-94376904D01*
X193136485Y-94376904D02*
X193136485Y-93757857D01*
X173402666Y-75751819D02*
X173402666Y-76466104D01*
X173402666Y-76466104D02*
X173355047Y-76608961D01*
X173355047Y-76608961D02*
X173259809Y-76704200D01*
X173259809Y-76704200D02*
X173116952Y-76751819D01*
X173116952Y-76751819D02*
X173021714Y-76751819D01*
X173783619Y-75751819D02*
X174402666Y-75751819D01*
X174402666Y-75751819D02*
X174069333Y-76132771D01*
X174069333Y-76132771D02*
X174212190Y-76132771D01*
X174212190Y-76132771D02*
X174307428Y-76180390D01*
X174307428Y-76180390D02*
X174355047Y-76228009D01*
X174355047Y-76228009D02*
X174402666Y-76323247D01*
X174402666Y-76323247D02*
X174402666Y-76561342D01*
X174402666Y-76561342D02*
X174355047Y-76656580D01*
X174355047Y-76656580D02*
X174307428Y-76704200D01*
X174307428Y-76704200D02*
X174212190Y-76751819D01*
X174212190Y-76751819D02*
X173926476Y-76751819D01*
X173926476Y-76751819D02*
X173831238Y-76704200D01*
X173831238Y-76704200D02*
X173783619Y-76656580D01*
X157764819Y-76874666D02*
X157288628Y-77207999D01*
X157764819Y-77446094D02*
X156764819Y-77446094D01*
X156764819Y-77446094D02*
X156764819Y-77065142D01*
X156764819Y-77065142D02*
X156812438Y-76969904D01*
X156812438Y-76969904D02*
X156860057Y-76922285D01*
X156860057Y-76922285D02*
X156955295Y-76874666D01*
X156955295Y-76874666D02*
X157098152Y-76874666D01*
X157098152Y-76874666D02*
X157193390Y-76922285D01*
X157193390Y-76922285D02*
X157241009Y-76969904D01*
X157241009Y-76969904D02*
X157288628Y-77065142D01*
X157288628Y-77065142D02*
X157288628Y-77446094D01*
X157764819Y-75922285D02*
X157764819Y-76493713D01*
X157764819Y-76207999D02*
X156764819Y-76207999D01*
X156764819Y-76207999D02*
X156907676Y-76303237D01*
X156907676Y-76303237D02*
X157002914Y-76398475D01*
X157002914Y-76398475D02*
X157050533Y-76493713D01*
X205591580Y-76366666D02*
X205639200Y-76414285D01*
X205639200Y-76414285D02*
X205686819Y-76557142D01*
X205686819Y-76557142D02*
X205686819Y-76652380D01*
X205686819Y-76652380D02*
X205639200Y-76795237D01*
X205639200Y-76795237D02*
X205543961Y-76890475D01*
X205543961Y-76890475D02*
X205448723Y-76938094D01*
X205448723Y-76938094D02*
X205258247Y-76985713D01*
X205258247Y-76985713D02*
X205115390Y-76985713D01*
X205115390Y-76985713D02*
X204924914Y-76938094D01*
X204924914Y-76938094D02*
X204829676Y-76890475D01*
X204829676Y-76890475D02*
X204734438Y-76795237D01*
X204734438Y-76795237D02*
X204686819Y-76652380D01*
X204686819Y-76652380D02*
X204686819Y-76557142D01*
X204686819Y-76557142D02*
X204734438Y-76414285D01*
X204734438Y-76414285D02*
X204782057Y-76366666D01*
X205115390Y-75795237D02*
X205067771Y-75890475D01*
X205067771Y-75890475D02*
X205020152Y-75938094D01*
X205020152Y-75938094D02*
X204924914Y-75985713D01*
X204924914Y-75985713D02*
X204877295Y-75985713D01*
X204877295Y-75985713D02*
X204782057Y-75938094D01*
X204782057Y-75938094D02*
X204734438Y-75890475D01*
X204734438Y-75890475D02*
X204686819Y-75795237D01*
X204686819Y-75795237D02*
X204686819Y-75604761D01*
X204686819Y-75604761D02*
X204734438Y-75509523D01*
X204734438Y-75509523D02*
X204782057Y-75461904D01*
X204782057Y-75461904D02*
X204877295Y-75414285D01*
X204877295Y-75414285D02*
X204924914Y-75414285D01*
X204924914Y-75414285D02*
X205020152Y-75461904D01*
X205020152Y-75461904D02*
X205067771Y-75509523D01*
X205067771Y-75509523D02*
X205115390Y-75604761D01*
X205115390Y-75604761D02*
X205115390Y-75795237D01*
X205115390Y-75795237D02*
X205163009Y-75890475D01*
X205163009Y-75890475D02*
X205210628Y-75938094D01*
X205210628Y-75938094D02*
X205305866Y-75985713D01*
X205305866Y-75985713D02*
X205496342Y-75985713D01*
X205496342Y-75985713D02*
X205591580Y-75938094D01*
X205591580Y-75938094D02*
X205639200Y-75890475D01*
X205639200Y-75890475D02*
X205686819Y-75795237D01*
X205686819Y-75795237D02*
X205686819Y-75604761D01*
X205686819Y-75604761D02*
X205639200Y-75509523D01*
X205639200Y-75509523D02*
X205591580Y-75461904D01*
X205591580Y-75461904D02*
X205496342Y-75414285D01*
X205496342Y-75414285D02*
X205305866Y-75414285D01*
X205305866Y-75414285D02*
X205210628Y-75461904D01*
X205210628Y-75461904D02*
X205163009Y-75509523D01*
X205163009Y-75509523D02*
X205115390Y-75604761D01*
X175429057Y-86582238D02*
X175381438Y-86677476D01*
X175381438Y-86677476D02*
X175286200Y-86772714D01*
X175286200Y-86772714D02*
X175143342Y-86915571D01*
X175143342Y-86915571D02*
X175095723Y-87010809D01*
X175095723Y-87010809D02*
X175095723Y-87106047D01*
X175333819Y-87058428D02*
X175286200Y-87153666D01*
X175286200Y-87153666D02*
X175190961Y-87248904D01*
X175190961Y-87248904D02*
X175000485Y-87296523D01*
X175000485Y-87296523D02*
X174667152Y-87296523D01*
X174667152Y-87296523D02*
X174476676Y-87248904D01*
X174476676Y-87248904D02*
X174381438Y-87153666D01*
X174381438Y-87153666D02*
X174333819Y-87058428D01*
X174333819Y-87058428D02*
X174333819Y-86867952D01*
X174333819Y-86867952D02*
X174381438Y-86772714D01*
X174381438Y-86772714D02*
X174476676Y-86677476D01*
X174476676Y-86677476D02*
X174667152Y-86629857D01*
X174667152Y-86629857D02*
X175000485Y-86629857D01*
X175000485Y-86629857D02*
X175190961Y-86677476D01*
X175190961Y-86677476D02*
X175286200Y-86772714D01*
X175286200Y-86772714D02*
X175333819Y-86867952D01*
X175333819Y-86867952D02*
X175333819Y-87058428D01*
X174429057Y-86248904D02*
X174381438Y-86201285D01*
X174381438Y-86201285D02*
X174333819Y-86106047D01*
X174333819Y-86106047D02*
X174333819Y-85867952D01*
X174333819Y-85867952D02*
X174381438Y-85772714D01*
X174381438Y-85772714D02*
X174429057Y-85725095D01*
X174429057Y-85725095D02*
X174524295Y-85677476D01*
X174524295Y-85677476D02*
X174619533Y-85677476D01*
X174619533Y-85677476D02*
X174762390Y-85725095D01*
X174762390Y-85725095D02*
X175333819Y-86296523D01*
X175333819Y-86296523D02*
X175333819Y-85677476D01*
X205432819Y-84240666D02*
X204956628Y-84573999D01*
X205432819Y-84812094D02*
X204432819Y-84812094D01*
X204432819Y-84812094D02*
X204432819Y-84431142D01*
X204432819Y-84431142D02*
X204480438Y-84335904D01*
X204480438Y-84335904D02*
X204528057Y-84288285D01*
X204528057Y-84288285D02*
X204623295Y-84240666D01*
X204623295Y-84240666D02*
X204766152Y-84240666D01*
X204766152Y-84240666D02*
X204861390Y-84288285D01*
X204861390Y-84288285D02*
X204909009Y-84335904D01*
X204909009Y-84335904D02*
X204956628Y-84431142D01*
X204956628Y-84431142D02*
X204956628Y-84812094D01*
X204432819Y-83907332D02*
X204432819Y-83240666D01*
X204432819Y-83240666D02*
X205432819Y-83669237D01*
X199324819Y-104941666D02*
X198848628Y-105274999D01*
X199324819Y-105513094D02*
X198324819Y-105513094D01*
X198324819Y-105513094D02*
X198324819Y-105132142D01*
X198324819Y-105132142D02*
X198372438Y-105036904D01*
X198372438Y-105036904D02*
X198420057Y-104989285D01*
X198420057Y-104989285D02*
X198515295Y-104941666D01*
X198515295Y-104941666D02*
X198658152Y-104941666D01*
X198658152Y-104941666D02*
X198753390Y-104989285D01*
X198753390Y-104989285D02*
X198801009Y-105036904D01*
X198801009Y-105036904D02*
X198848628Y-105132142D01*
X198848628Y-105132142D02*
X198848628Y-105513094D01*
X198753390Y-104370237D02*
X198705771Y-104465475D01*
X198705771Y-104465475D02*
X198658152Y-104513094D01*
X198658152Y-104513094D02*
X198562914Y-104560713D01*
X198562914Y-104560713D02*
X198515295Y-104560713D01*
X198515295Y-104560713D02*
X198420057Y-104513094D01*
X198420057Y-104513094D02*
X198372438Y-104465475D01*
X198372438Y-104465475D02*
X198324819Y-104370237D01*
X198324819Y-104370237D02*
X198324819Y-104179761D01*
X198324819Y-104179761D02*
X198372438Y-104084523D01*
X198372438Y-104084523D02*
X198420057Y-104036904D01*
X198420057Y-104036904D02*
X198515295Y-103989285D01*
X198515295Y-103989285D02*
X198562914Y-103989285D01*
X198562914Y-103989285D02*
X198658152Y-104036904D01*
X198658152Y-104036904D02*
X198705771Y-104084523D01*
X198705771Y-104084523D02*
X198753390Y-104179761D01*
X198753390Y-104179761D02*
X198753390Y-104370237D01*
X198753390Y-104370237D02*
X198801009Y-104465475D01*
X198801009Y-104465475D02*
X198848628Y-104513094D01*
X198848628Y-104513094D02*
X198943866Y-104560713D01*
X198943866Y-104560713D02*
X199134342Y-104560713D01*
X199134342Y-104560713D02*
X199229580Y-104513094D01*
X199229580Y-104513094D02*
X199277200Y-104465475D01*
X199277200Y-104465475D02*
X199324819Y-104370237D01*
X199324819Y-104370237D02*
X199324819Y-104179761D01*
X199324819Y-104179761D02*
X199277200Y-104084523D01*
X199277200Y-104084523D02*
X199229580Y-104036904D01*
X199229580Y-104036904D02*
X199134342Y-103989285D01*
X199134342Y-103989285D02*
X198943866Y-103989285D01*
X198943866Y-103989285D02*
X198848628Y-104036904D01*
X198848628Y-104036904D02*
X198801009Y-104084523D01*
X198801009Y-104084523D02*
X198753390Y-104179761D01*
X200541095Y-97665819D02*
X201112523Y-97665819D01*
X200826809Y-98665819D02*
X200826809Y-97665819D01*
X201445857Y-98665819D02*
X201445857Y-97665819D01*
X201445857Y-97665819D02*
X201826809Y-97665819D01*
X201826809Y-97665819D02*
X201922047Y-97713438D01*
X201922047Y-97713438D02*
X201969666Y-97761057D01*
X201969666Y-97761057D02*
X202017285Y-97856295D01*
X202017285Y-97856295D02*
X202017285Y-97999152D01*
X202017285Y-97999152D02*
X201969666Y-98094390D01*
X201969666Y-98094390D02*
X201922047Y-98142009D01*
X201922047Y-98142009D02*
X201826809Y-98189628D01*
X201826809Y-98189628D02*
X201445857Y-98189628D01*
X202922047Y-97665819D02*
X202445857Y-97665819D01*
X202445857Y-97665819D02*
X202398238Y-98142009D01*
X202398238Y-98142009D02*
X202445857Y-98094390D01*
X202445857Y-98094390D02*
X202541095Y-98046771D01*
X202541095Y-98046771D02*
X202779190Y-98046771D01*
X202779190Y-98046771D02*
X202874428Y-98094390D01*
X202874428Y-98094390D02*
X202922047Y-98142009D01*
X202922047Y-98142009D02*
X202969666Y-98237247D01*
X202969666Y-98237247D02*
X202969666Y-98475342D01*
X202969666Y-98475342D02*
X202922047Y-98570580D01*
X202922047Y-98570580D02*
X202874428Y-98618200D01*
X202874428Y-98618200D02*
X202779190Y-98665819D01*
X202779190Y-98665819D02*
X202541095Y-98665819D01*
X202541095Y-98665819D02*
X202445857Y-98618200D01*
X202445857Y-98618200D02*
X202398238Y-98570580D01*
X157926580Y-87923666D02*
X157974200Y-87971285D01*
X157974200Y-87971285D02*
X158021819Y-88114142D01*
X158021819Y-88114142D02*
X158021819Y-88209380D01*
X158021819Y-88209380D02*
X157974200Y-88352237D01*
X157974200Y-88352237D02*
X157878961Y-88447475D01*
X157878961Y-88447475D02*
X157783723Y-88495094D01*
X157783723Y-88495094D02*
X157593247Y-88542713D01*
X157593247Y-88542713D02*
X157450390Y-88542713D01*
X157450390Y-88542713D02*
X157259914Y-88495094D01*
X157259914Y-88495094D02*
X157164676Y-88447475D01*
X157164676Y-88447475D02*
X157069438Y-88352237D01*
X157069438Y-88352237D02*
X157021819Y-88209380D01*
X157021819Y-88209380D02*
X157021819Y-88114142D01*
X157021819Y-88114142D02*
X157069438Y-87971285D01*
X157069438Y-87971285D02*
X157117057Y-87923666D01*
X158021819Y-86971285D02*
X158021819Y-87542713D01*
X158021819Y-87256999D02*
X157021819Y-87256999D01*
X157021819Y-87256999D02*
X157164676Y-87352237D01*
X157164676Y-87352237D02*
X157259914Y-87447475D01*
X157259914Y-87447475D02*
X157307533Y-87542713D01*
X165050057Y-85595238D02*
X165002438Y-85690476D01*
X165002438Y-85690476D02*
X164907200Y-85785714D01*
X164907200Y-85785714D02*
X164764342Y-85928571D01*
X164764342Y-85928571D02*
X164716723Y-86023809D01*
X164716723Y-86023809D02*
X164716723Y-86119047D01*
X164954819Y-86071428D02*
X164907200Y-86166666D01*
X164907200Y-86166666D02*
X164811961Y-86261904D01*
X164811961Y-86261904D02*
X164621485Y-86309523D01*
X164621485Y-86309523D02*
X164288152Y-86309523D01*
X164288152Y-86309523D02*
X164097676Y-86261904D01*
X164097676Y-86261904D02*
X164002438Y-86166666D01*
X164002438Y-86166666D02*
X163954819Y-86071428D01*
X163954819Y-86071428D02*
X163954819Y-85880952D01*
X163954819Y-85880952D02*
X164002438Y-85785714D01*
X164002438Y-85785714D02*
X164097676Y-85690476D01*
X164097676Y-85690476D02*
X164288152Y-85642857D01*
X164288152Y-85642857D02*
X164621485Y-85642857D01*
X164621485Y-85642857D02*
X164811961Y-85690476D01*
X164811961Y-85690476D02*
X164907200Y-85785714D01*
X164907200Y-85785714D02*
X164954819Y-85880952D01*
X164954819Y-85880952D02*
X164954819Y-86071428D01*
X164954819Y-84690476D02*
X164954819Y-85261904D01*
X164954819Y-84976190D02*
X163954819Y-84976190D01*
X163954819Y-84976190D02*
X164097676Y-85071428D01*
X164097676Y-85071428D02*
X164192914Y-85166666D01*
X164192914Y-85166666D02*
X164240533Y-85261904D01*
X180833333Y-77168819D02*
X180500000Y-76692628D01*
X180261905Y-77168819D02*
X180261905Y-76168819D01*
X180261905Y-76168819D02*
X180642857Y-76168819D01*
X180642857Y-76168819D02*
X180738095Y-76216438D01*
X180738095Y-76216438D02*
X180785714Y-76264057D01*
X180785714Y-76264057D02*
X180833333Y-76359295D01*
X180833333Y-76359295D02*
X180833333Y-76502152D01*
X180833333Y-76502152D02*
X180785714Y-76597390D01*
X180785714Y-76597390D02*
X180738095Y-76645009D01*
X180738095Y-76645009D02*
X180642857Y-76692628D01*
X180642857Y-76692628D02*
X180261905Y-76692628D01*
X181690476Y-76168819D02*
X181500000Y-76168819D01*
X181500000Y-76168819D02*
X181404762Y-76216438D01*
X181404762Y-76216438D02*
X181357143Y-76264057D01*
X181357143Y-76264057D02*
X181261905Y-76406914D01*
X181261905Y-76406914D02*
X181214286Y-76597390D01*
X181214286Y-76597390D02*
X181214286Y-76978342D01*
X181214286Y-76978342D02*
X181261905Y-77073580D01*
X181261905Y-77073580D02*
X181309524Y-77121200D01*
X181309524Y-77121200D02*
X181404762Y-77168819D01*
X181404762Y-77168819D02*
X181595238Y-77168819D01*
X181595238Y-77168819D02*
X181690476Y-77121200D01*
X181690476Y-77121200D02*
X181738095Y-77073580D01*
X181738095Y-77073580D02*
X181785714Y-76978342D01*
X181785714Y-76978342D02*
X181785714Y-76740247D01*
X181785714Y-76740247D02*
X181738095Y-76645009D01*
X181738095Y-76645009D02*
X181690476Y-76597390D01*
X181690476Y-76597390D02*
X181595238Y-76549771D01*
X181595238Y-76549771D02*
X181404762Y-76549771D01*
X181404762Y-76549771D02*
X181309524Y-76597390D01*
X181309524Y-76597390D02*
X181261905Y-76645009D01*
X181261905Y-76645009D02*
X181214286Y-76740247D01*
X188857095Y-90299819D02*
X189428523Y-90299819D01*
X189142809Y-91299819D02*
X189142809Y-90299819D01*
X189761857Y-91299819D02*
X189761857Y-90299819D01*
X189761857Y-90299819D02*
X190142809Y-90299819D01*
X190142809Y-90299819D02*
X190238047Y-90347438D01*
X190238047Y-90347438D02*
X190285666Y-90395057D01*
X190285666Y-90395057D02*
X190333285Y-90490295D01*
X190333285Y-90490295D02*
X190333285Y-90633152D01*
X190333285Y-90633152D02*
X190285666Y-90728390D01*
X190285666Y-90728390D02*
X190238047Y-90776009D01*
X190238047Y-90776009D02*
X190142809Y-90823628D01*
X190142809Y-90823628D02*
X189761857Y-90823628D01*
X190714238Y-90395057D02*
X190761857Y-90347438D01*
X190761857Y-90347438D02*
X190857095Y-90299819D01*
X190857095Y-90299819D02*
X191095190Y-90299819D01*
X191095190Y-90299819D02*
X191190428Y-90347438D01*
X191190428Y-90347438D02*
X191238047Y-90395057D01*
X191238047Y-90395057D02*
X191285666Y-90490295D01*
X191285666Y-90490295D02*
X191285666Y-90585533D01*
X191285666Y-90585533D02*
X191238047Y-90728390D01*
X191238047Y-90728390D02*
X190666619Y-91299819D01*
X190666619Y-91299819D02*
X191285666Y-91299819D01*
X187412333Y-84446580D02*
X187364714Y-84494200D01*
X187364714Y-84494200D02*
X187221857Y-84541819D01*
X187221857Y-84541819D02*
X187126619Y-84541819D01*
X187126619Y-84541819D02*
X186983762Y-84494200D01*
X186983762Y-84494200D02*
X186888524Y-84398961D01*
X186888524Y-84398961D02*
X186840905Y-84303723D01*
X186840905Y-84303723D02*
X186793286Y-84113247D01*
X186793286Y-84113247D02*
X186793286Y-83970390D01*
X186793286Y-83970390D02*
X186840905Y-83779914D01*
X186840905Y-83779914D02*
X186888524Y-83684676D01*
X186888524Y-83684676D02*
X186983762Y-83589438D01*
X186983762Y-83589438D02*
X187126619Y-83541819D01*
X187126619Y-83541819D02*
X187221857Y-83541819D01*
X187221857Y-83541819D02*
X187364714Y-83589438D01*
X187364714Y-83589438D02*
X187412333Y-83637057D01*
X187745667Y-83541819D02*
X188364714Y-83541819D01*
X188364714Y-83541819D02*
X188031381Y-83922771D01*
X188031381Y-83922771D02*
X188174238Y-83922771D01*
X188174238Y-83922771D02*
X188269476Y-83970390D01*
X188269476Y-83970390D02*
X188317095Y-84018009D01*
X188317095Y-84018009D02*
X188364714Y-84113247D01*
X188364714Y-84113247D02*
X188364714Y-84351342D01*
X188364714Y-84351342D02*
X188317095Y-84446580D01*
X188317095Y-84446580D02*
X188269476Y-84494200D01*
X188269476Y-84494200D02*
X188174238Y-84541819D01*
X188174238Y-84541819D02*
X187888524Y-84541819D01*
X187888524Y-84541819D02*
X187793286Y-84494200D01*
X187793286Y-84494200D02*
X187745667Y-84446580D01*
X200847580Y-71100287D02*
X200895200Y-71147906D01*
X200895200Y-71147906D02*
X200942819Y-71290763D01*
X200942819Y-71290763D02*
X200942819Y-71386001D01*
X200942819Y-71386001D02*
X200895200Y-71528858D01*
X200895200Y-71528858D02*
X200799961Y-71624096D01*
X200799961Y-71624096D02*
X200704723Y-71671715D01*
X200704723Y-71671715D02*
X200514247Y-71719334D01*
X200514247Y-71719334D02*
X200371390Y-71719334D01*
X200371390Y-71719334D02*
X200180914Y-71671715D01*
X200180914Y-71671715D02*
X200085676Y-71624096D01*
X200085676Y-71624096D02*
X199990438Y-71528858D01*
X199990438Y-71528858D02*
X199942819Y-71386001D01*
X199942819Y-71386001D02*
X199942819Y-71290763D01*
X199942819Y-71290763D02*
X199990438Y-71147906D01*
X199990438Y-71147906D02*
X200038057Y-71100287D01*
X199942819Y-70195525D02*
X199942819Y-70671715D01*
X199942819Y-70671715D02*
X200419009Y-70719334D01*
X200419009Y-70719334D02*
X200371390Y-70671715D01*
X200371390Y-70671715D02*
X200323771Y-70576477D01*
X200323771Y-70576477D02*
X200323771Y-70338382D01*
X200323771Y-70338382D02*
X200371390Y-70243144D01*
X200371390Y-70243144D02*
X200419009Y-70195525D01*
X200419009Y-70195525D02*
X200514247Y-70147906D01*
X200514247Y-70147906D02*
X200752342Y-70147906D01*
X200752342Y-70147906D02*
X200847580Y-70195525D01*
X200847580Y-70195525D02*
X200895200Y-70243144D01*
X200895200Y-70243144D02*
X200942819Y-70338382D01*
X200942819Y-70338382D02*
X200942819Y-70576477D01*
X200942819Y-70576477D02*
X200895200Y-70671715D01*
X200895200Y-70671715D02*
X200847580Y-70719334D01*
X147875666Y-85255819D02*
X147875666Y-85970104D01*
X147875666Y-85970104D02*
X147828047Y-86112961D01*
X147828047Y-86112961D02*
X147732809Y-86208200D01*
X147732809Y-86208200D02*
X147589952Y-86255819D01*
X147589952Y-86255819D02*
X147494714Y-86255819D01*
X148875666Y-86255819D02*
X148304238Y-86255819D01*
X148589952Y-86255819D02*
X148589952Y-85255819D01*
X148589952Y-85255819D02*
X148494714Y-85398676D01*
X148494714Y-85398676D02*
X148399476Y-85493914D01*
X148399476Y-85493914D02*
X148304238Y-85541533D01*
X191324819Y-104941666D02*
X190848628Y-105274999D01*
X191324819Y-105513094D02*
X190324819Y-105513094D01*
X190324819Y-105513094D02*
X190324819Y-105132142D01*
X190324819Y-105132142D02*
X190372438Y-105036904D01*
X190372438Y-105036904D02*
X190420057Y-104989285D01*
X190420057Y-104989285D02*
X190515295Y-104941666D01*
X190515295Y-104941666D02*
X190658152Y-104941666D01*
X190658152Y-104941666D02*
X190753390Y-104989285D01*
X190753390Y-104989285D02*
X190801009Y-105036904D01*
X190801009Y-105036904D02*
X190848628Y-105132142D01*
X190848628Y-105132142D02*
X190848628Y-105513094D01*
X190658152Y-104084523D02*
X191324819Y-104084523D01*
X190277200Y-104322618D02*
X190991485Y-104560713D01*
X190991485Y-104560713D02*
X190991485Y-103941666D01*
X210123580Y-96051666D02*
X210171200Y-96099285D01*
X210171200Y-96099285D02*
X210218819Y-96242142D01*
X210218819Y-96242142D02*
X210218819Y-96337380D01*
X210218819Y-96337380D02*
X210171200Y-96480237D01*
X210171200Y-96480237D02*
X210075961Y-96575475D01*
X210075961Y-96575475D02*
X209980723Y-96623094D01*
X209980723Y-96623094D02*
X209790247Y-96670713D01*
X209790247Y-96670713D02*
X209647390Y-96670713D01*
X209647390Y-96670713D02*
X209456914Y-96623094D01*
X209456914Y-96623094D02*
X209361676Y-96575475D01*
X209361676Y-96575475D02*
X209266438Y-96480237D01*
X209266438Y-96480237D02*
X209218819Y-96337380D01*
X209218819Y-96337380D02*
X209218819Y-96242142D01*
X209218819Y-96242142D02*
X209266438Y-96099285D01*
X209266438Y-96099285D02*
X209314057Y-96051666D01*
X209552152Y-95194523D02*
X210218819Y-95194523D01*
X209171200Y-95432618D02*
X209885485Y-95670713D01*
X209885485Y-95670713D02*
X209885485Y-95051666D01*
X193889333Y-77289819D02*
X193556000Y-76813628D01*
X193317905Y-77289819D02*
X193317905Y-76289819D01*
X193317905Y-76289819D02*
X193698857Y-76289819D01*
X193698857Y-76289819D02*
X193794095Y-76337438D01*
X193794095Y-76337438D02*
X193841714Y-76385057D01*
X193841714Y-76385057D02*
X193889333Y-76480295D01*
X193889333Y-76480295D02*
X193889333Y-76623152D01*
X193889333Y-76623152D02*
X193841714Y-76718390D01*
X193841714Y-76718390D02*
X193794095Y-76766009D01*
X193794095Y-76766009D02*
X193698857Y-76813628D01*
X193698857Y-76813628D02*
X193317905Y-76813628D01*
X194794095Y-76289819D02*
X194317905Y-76289819D01*
X194317905Y-76289819D02*
X194270286Y-76766009D01*
X194270286Y-76766009D02*
X194317905Y-76718390D01*
X194317905Y-76718390D02*
X194413143Y-76670771D01*
X194413143Y-76670771D02*
X194651238Y-76670771D01*
X194651238Y-76670771D02*
X194746476Y-76718390D01*
X194746476Y-76718390D02*
X194794095Y-76766009D01*
X194794095Y-76766009D02*
X194841714Y-76861247D01*
X194841714Y-76861247D02*
X194841714Y-77099342D01*
X194841714Y-77099342D02*
X194794095Y-77194580D01*
X194794095Y-77194580D02*
X194746476Y-77242200D01*
X194746476Y-77242200D02*
X194651238Y-77289819D01*
X194651238Y-77289819D02*
X194413143Y-77289819D01*
X194413143Y-77289819D02*
X194317905Y-77242200D01*
X194317905Y-77242200D02*
X194270286Y-77194580D01*
X219122666Y-86398819D02*
X219122666Y-87113104D01*
X219122666Y-87113104D02*
X219075047Y-87255961D01*
X219075047Y-87255961D02*
X218979809Y-87351200D01*
X218979809Y-87351200D02*
X218836952Y-87398819D01*
X218836952Y-87398819D02*
X218741714Y-87398819D01*
X219551238Y-86494057D02*
X219598857Y-86446438D01*
X219598857Y-86446438D02*
X219694095Y-86398819D01*
X219694095Y-86398819D02*
X219932190Y-86398819D01*
X219932190Y-86398819D02*
X220027428Y-86446438D01*
X220027428Y-86446438D02*
X220075047Y-86494057D01*
X220075047Y-86494057D02*
X220122666Y-86589295D01*
X220122666Y-86589295D02*
X220122666Y-86684533D01*
X220122666Y-86684533D02*
X220075047Y-86827390D01*
X220075047Y-86827390D02*
X219503619Y-87398819D01*
X219503619Y-87398819D02*
X220122666Y-87398819D01*
X174359580Y-95666666D02*
X174407200Y-95714285D01*
X174407200Y-95714285D02*
X174454819Y-95857142D01*
X174454819Y-95857142D02*
X174454819Y-95952380D01*
X174454819Y-95952380D02*
X174407200Y-96095237D01*
X174407200Y-96095237D02*
X174311961Y-96190475D01*
X174311961Y-96190475D02*
X174216723Y-96238094D01*
X174216723Y-96238094D02*
X174026247Y-96285713D01*
X174026247Y-96285713D02*
X173883390Y-96285713D01*
X173883390Y-96285713D02*
X173692914Y-96238094D01*
X173692914Y-96238094D02*
X173597676Y-96190475D01*
X173597676Y-96190475D02*
X173502438Y-96095237D01*
X173502438Y-96095237D02*
X173454819Y-95952380D01*
X173454819Y-95952380D02*
X173454819Y-95857142D01*
X173454819Y-95857142D02*
X173502438Y-95714285D01*
X173502438Y-95714285D02*
X173550057Y-95666666D01*
X173550057Y-95285713D02*
X173502438Y-95238094D01*
X173502438Y-95238094D02*
X173454819Y-95142856D01*
X173454819Y-95142856D02*
X173454819Y-94904761D01*
X173454819Y-94904761D02*
X173502438Y-94809523D01*
X173502438Y-94809523D02*
X173550057Y-94761904D01*
X173550057Y-94761904D02*
X173645295Y-94714285D01*
X173645295Y-94714285D02*
X173740533Y-94714285D01*
X173740533Y-94714285D02*
X173883390Y-94761904D01*
X173883390Y-94761904D02*
X174454819Y-95333332D01*
X174454819Y-95333332D02*
X174454819Y-94714285D01*
X165314333Y-107454819D02*
X164981000Y-106978628D01*
X164742905Y-107454819D02*
X164742905Y-106454819D01*
X164742905Y-106454819D02*
X165123857Y-106454819D01*
X165123857Y-106454819D02*
X165219095Y-106502438D01*
X165219095Y-106502438D02*
X165266714Y-106550057D01*
X165266714Y-106550057D02*
X165314333Y-106645295D01*
X165314333Y-106645295D02*
X165314333Y-106788152D01*
X165314333Y-106788152D02*
X165266714Y-106883390D01*
X165266714Y-106883390D02*
X165219095Y-106931009D01*
X165219095Y-106931009D02*
X165123857Y-106978628D01*
X165123857Y-106978628D02*
X164742905Y-106978628D01*
X165695286Y-106550057D02*
X165742905Y-106502438D01*
X165742905Y-106502438D02*
X165838143Y-106454819D01*
X165838143Y-106454819D02*
X166076238Y-106454819D01*
X166076238Y-106454819D02*
X166171476Y-106502438D01*
X166171476Y-106502438D02*
X166219095Y-106550057D01*
X166219095Y-106550057D02*
X166266714Y-106645295D01*
X166266714Y-106645295D02*
X166266714Y-106740533D01*
X166266714Y-106740533D02*
X166219095Y-106883390D01*
X166219095Y-106883390D02*
X165647667Y-107454819D01*
X165647667Y-107454819D02*
X166266714Y-107454819D01*
X170950095Y-90299819D02*
X171521523Y-90299819D01*
X171235809Y-91299819D02*
X171235809Y-90299819D01*
X171854857Y-91299819D02*
X171854857Y-90299819D01*
X171854857Y-90299819D02*
X172235809Y-90299819D01*
X172235809Y-90299819D02*
X172331047Y-90347438D01*
X172331047Y-90347438D02*
X172378666Y-90395057D01*
X172378666Y-90395057D02*
X172426285Y-90490295D01*
X172426285Y-90490295D02*
X172426285Y-90633152D01*
X172426285Y-90633152D02*
X172378666Y-90728390D01*
X172378666Y-90728390D02*
X172331047Y-90776009D01*
X172331047Y-90776009D02*
X172235809Y-90823628D01*
X172235809Y-90823628D02*
X171854857Y-90823628D01*
X173378666Y-91299819D02*
X172807238Y-91299819D01*
X173092952Y-91299819D02*
X173092952Y-90299819D01*
X173092952Y-90299819D02*
X172997714Y-90442676D01*
X172997714Y-90442676D02*
X172902476Y-90537914D01*
X172902476Y-90537914D02*
X172807238Y-90585533D01*
X189295580Y-71413666D02*
X189343200Y-71461285D01*
X189343200Y-71461285D02*
X189390819Y-71604142D01*
X189390819Y-71604142D02*
X189390819Y-71699380D01*
X189390819Y-71699380D02*
X189343200Y-71842237D01*
X189343200Y-71842237D02*
X189247961Y-71937475D01*
X189247961Y-71937475D02*
X189152723Y-71985094D01*
X189152723Y-71985094D02*
X188962247Y-72032713D01*
X188962247Y-72032713D02*
X188819390Y-72032713D01*
X188819390Y-72032713D02*
X188628914Y-71985094D01*
X188628914Y-71985094D02*
X188533676Y-71937475D01*
X188533676Y-71937475D02*
X188438438Y-71842237D01*
X188438438Y-71842237D02*
X188390819Y-71699380D01*
X188390819Y-71699380D02*
X188390819Y-71604142D01*
X188390819Y-71604142D02*
X188438438Y-71461285D01*
X188438438Y-71461285D02*
X188486057Y-71413666D01*
X188390819Y-70556523D02*
X188390819Y-70746999D01*
X188390819Y-70746999D02*
X188438438Y-70842237D01*
X188438438Y-70842237D02*
X188486057Y-70889856D01*
X188486057Y-70889856D02*
X188628914Y-70985094D01*
X188628914Y-70985094D02*
X188819390Y-71032713D01*
X188819390Y-71032713D02*
X189200342Y-71032713D01*
X189200342Y-71032713D02*
X189295580Y-70985094D01*
X189295580Y-70985094D02*
X189343200Y-70937475D01*
X189343200Y-70937475D02*
X189390819Y-70842237D01*
X189390819Y-70842237D02*
X189390819Y-70651761D01*
X189390819Y-70651761D02*
X189343200Y-70556523D01*
X189343200Y-70556523D02*
X189295580Y-70508904D01*
X189295580Y-70508904D02*
X189200342Y-70461285D01*
X189200342Y-70461285D02*
X188962247Y-70461285D01*
X188962247Y-70461285D02*
X188867009Y-70508904D01*
X188867009Y-70508904D02*
X188819390Y-70556523D01*
X188819390Y-70556523D02*
X188771771Y-70651761D01*
X188771771Y-70651761D02*
X188771771Y-70842237D01*
X188771771Y-70842237D02*
X188819390Y-70937475D01*
X188819390Y-70937475D02*
X188867009Y-70985094D01*
X188867009Y-70985094D02*
X188962247Y-71032713D01*
X164784580Y-74207666D02*
X164832200Y-74255285D01*
X164832200Y-74255285D02*
X164879819Y-74398142D01*
X164879819Y-74398142D02*
X164879819Y-74493380D01*
X164879819Y-74493380D02*
X164832200Y-74636237D01*
X164832200Y-74636237D02*
X164736961Y-74731475D01*
X164736961Y-74731475D02*
X164641723Y-74779094D01*
X164641723Y-74779094D02*
X164451247Y-74826713D01*
X164451247Y-74826713D02*
X164308390Y-74826713D01*
X164308390Y-74826713D02*
X164117914Y-74779094D01*
X164117914Y-74779094D02*
X164022676Y-74731475D01*
X164022676Y-74731475D02*
X163927438Y-74636237D01*
X163927438Y-74636237D02*
X163879819Y-74493380D01*
X163879819Y-74493380D02*
X163879819Y-74398142D01*
X163879819Y-74398142D02*
X163927438Y-74255285D01*
X163927438Y-74255285D02*
X163975057Y-74207666D01*
X163879819Y-73874332D02*
X163879819Y-73207666D01*
X163879819Y-73207666D02*
X164879819Y-73636237D01*
X179738095Y-81454819D02*
X180309523Y-81454819D01*
X180023809Y-82454819D02*
X180023809Y-81454819D01*
X180642857Y-82454819D02*
X180642857Y-81454819D01*
X180642857Y-81454819D02*
X181023809Y-81454819D01*
X181023809Y-81454819D02*
X181119047Y-81502438D01*
X181119047Y-81502438D02*
X181166666Y-81550057D01*
X181166666Y-81550057D02*
X181214285Y-81645295D01*
X181214285Y-81645295D02*
X181214285Y-81788152D01*
X181214285Y-81788152D02*
X181166666Y-81883390D01*
X181166666Y-81883390D02*
X181119047Y-81931009D01*
X181119047Y-81931009D02*
X181023809Y-81978628D01*
X181023809Y-81978628D02*
X180642857Y-81978628D01*
X181547619Y-81454819D02*
X182166666Y-81454819D01*
X182166666Y-81454819D02*
X181833333Y-81835771D01*
X181833333Y-81835771D02*
X181976190Y-81835771D01*
X181976190Y-81835771D02*
X182071428Y-81883390D01*
X182071428Y-81883390D02*
X182119047Y-81931009D01*
X182119047Y-81931009D02*
X182166666Y-82026247D01*
X182166666Y-82026247D02*
X182166666Y-82264342D01*
X182166666Y-82264342D02*
X182119047Y-82359580D01*
X182119047Y-82359580D02*
X182071428Y-82407200D01*
X182071428Y-82407200D02*
X181976190Y-82454819D01*
X181976190Y-82454819D02*
X181690476Y-82454819D01*
X181690476Y-82454819D02*
X181595238Y-82407200D01*
X181595238Y-82407200D02*
X181547619Y-82359580D01*
X183672819Y-94781666D02*
X183196628Y-95114999D01*
X183672819Y-95353094D02*
X182672819Y-95353094D01*
X182672819Y-95353094D02*
X182672819Y-94972142D01*
X182672819Y-94972142D02*
X182720438Y-94876904D01*
X182720438Y-94876904D02*
X182768057Y-94829285D01*
X182768057Y-94829285D02*
X182863295Y-94781666D01*
X182863295Y-94781666D02*
X183006152Y-94781666D01*
X183006152Y-94781666D02*
X183101390Y-94829285D01*
X183101390Y-94829285D02*
X183149009Y-94876904D01*
X183149009Y-94876904D02*
X183196628Y-94972142D01*
X183196628Y-94972142D02*
X183196628Y-95353094D01*
X182672819Y-94448332D02*
X182672819Y-93829285D01*
X182672819Y-93829285D02*
X183053771Y-94162618D01*
X183053771Y-94162618D02*
X183053771Y-94019761D01*
X183053771Y-94019761D02*
X183101390Y-93924523D01*
X183101390Y-93924523D02*
X183149009Y-93876904D01*
X183149009Y-93876904D02*
X183244247Y-93829285D01*
X183244247Y-93829285D02*
X183482342Y-93829285D01*
X183482342Y-93829285D02*
X183577580Y-93876904D01*
X183577580Y-93876904D02*
X183625200Y-93924523D01*
X183625200Y-93924523D02*
X183672819Y-94019761D01*
X183672819Y-94019761D02*
X183672819Y-94305475D01*
X183672819Y-94305475D02*
X183625200Y-94400713D01*
X183625200Y-94400713D02*
X183577580Y-94448332D01*
%TO.C,R9*%
D13*
X211709000Y-99338000D02*
X211709000Y-100108000D01*
X211709000Y-107418000D02*
X211709000Y-106648000D01*
X210339000Y-100108000D02*
X213079000Y-100108000D01*
X213079000Y-106648000D01*
X210339000Y-106648000D01*
X210339000Y-100108000D01*
%TO.C,TP4*%
X204346000Y-92202000D02*
G75*
G02*
X201546000Y-92202000I-1400000J0D01*
G01*
X201546000Y-92202000D02*
G75*
G02*
X204346000Y-92202000I1400000J0D01*
G01*
%TO.C,Q3*%
X198446000Y-86382000D02*
X198446000Y-82782000D01*
X193996000Y-84582000D02*
G75*
G02*
X195497193Y-82225600I2600000J0D01*
G01*
X195497193Y-86938400D02*
G75*
G02*
X193996000Y-84582000I1098807J2356400D01*
G01*
X197718795Y-82257816D02*
G75*
G02*
X198446000Y-82782000I-1122795J-2324184D01*
G01*
X198446000Y-86382000D02*
G75*
G02*
X197718795Y-86906184I-1850000J1800000D01*
G01*
%TO.C,Q4*%
X198425000Y-96415000D02*
X198425000Y-92815000D01*
X193975000Y-94615000D02*
G75*
G02*
X195476193Y-92258600I2600000J0D01*
G01*
X195476193Y-96971400D02*
G75*
G02*
X193975000Y-94615000I1098807J2356400D01*
G01*
X197697795Y-92290816D02*
G75*
G02*
X198425000Y-92815000I-1122795J-2324184D01*
G01*
X198425000Y-96415000D02*
G75*
G02*
X197697795Y-96939184I-1850000J1800000D01*
G01*
%TO.C,J3*%
X168536000Y-65257000D02*
X175976000Y-65257000D01*
X168536000Y-75297000D02*
X168536000Y-65257000D01*
X176576000Y-65257000D02*
X178936000Y-65257000D01*
X178936000Y-65257000D02*
X178936000Y-75297000D01*
X178936000Y-65877000D02*
X168536000Y-65877000D01*
X178936000Y-67377000D02*
X168536000Y-67377000D01*
X178936000Y-72277000D02*
X168536000Y-72277000D01*
X178936000Y-75297000D02*
X168536000Y-75297000D01*
X176276000Y-65257000D02*
X175836000Y-64647000D01*
X176716000Y-64647000D01*
X176276000Y-65257000D01*
G36*
X176276000Y-65257000D02*
G01*
X175836000Y-64647000D01*
X176716000Y-64647000D01*
X176276000Y-65257000D01*
G37*
%TO.C,R1*%
X154940000Y-72668000D02*
X154940000Y-73438000D01*
X154940000Y-80748000D02*
X154940000Y-79978000D01*
X153570000Y-73438000D02*
X156310000Y-73438000D01*
X156310000Y-79978000D01*
X153570000Y-79978000D01*
X153570000Y-73438000D01*
%TO.C,C8*%
X201576000Y-73580000D02*
X201913000Y-73580000D01*
X201576000Y-78820000D02*
X201576000Y-73580000D01*
X201913000Y-78820000D02*
X201576000Y-78820000D01*
X203979000Y-73580000D02*
X204316000Y-73580000D01*
X204316000Y-73580000D02*
X204316000Y-78820000D01*
X204316000Y-78820000D02*
X203979000Y-78820000D01*
%TO.C,Q2*%
X174062000Y-88033000D02*
X174062000Y-84433000D01*
X169612000Y-86233000D02*
G75*
G02*
X171113193Y-83876600I2600000J0D01*
G01*
X171113193Y-88589400D02*
G75*
G02*
X169612000Y-86233000I1098807J2356400D01*
G01*
X173334795Y-83908816D02*
G75*
G02*
X174062000Y-84433000I-1122795J-2324184D01*
G01*
X174062000Y-88033000D02*
G75*
G02*
X173334795Y-88557184I-1850000J1800000D01*
G01*
%TO.C,R7*%
X207264000Y-79907000D02*
X207264000Y-80677000D01*
X207264000Y-87987000D02*
X207264000Y-87217000D01*
X205894000Y-80677000D02*
X208634000Y-80677000D01*
X208634000Y-87217000D01*
X205894000Y-87217000D01*
X205894000Y-80677000D01*
%TO.C,R8*%
X196500000Y-100735000D02*
X196500000Y-101505000D01*
X196500000Y-108815000D02*
X196500000Y-108045000D01*
X195130000Y-101505000D02*
X197870000Y-101505000D01*
X197870000Y-108045000D01*
X195130000Y-108045000D01*
X195130000Y-101505000D01*
%TO.C,TP5*%
X203203000Y-100711000D02*
G75*
G02*
X200403000Y-100711000I-1400000J0D01*
G01*
X200403000Y-100711000D02*
G75*
G02*
X203203000Y-100711000I1400000J0D01*
G01*
%TO.C,C1*%
X153697000Y-85137000D02*
X154034000Y-85137000D01*
X153697000Y-90377000D02*
X153697000Y-85137000D01*
X154034000Y-90377000D02*
X153697000Y-90377000D01*
X156100000Y-85137000D02*
X156437000Y-85137000D01*
X156437000Y-85137000D02*
X156437000Y-90377000D01*
X156437000Y-90377000D02*
X156100000Y-90377000D01*
%TO.C,Q1*%
X163394000Y-87144000D02*
X163394000Y-83544000D01*
X158944000Y-85344000D02*
G75*
G02*
X160445193Y-82987600I2600000J0D01*
G01*
X160445193Y-87700400D02*
G75*
G02*
X158944000Y-85344000I1098807J2356400D01*
G01*
X162666795Y-83019816D02*
G75*
G02*
X163394000Y-83544000I-1122795J-2324184D01*
G01*
X163394000Y-87144000D02*
G75*
G02*
X162666795Y-87668184I-1850000J1800000D01*
G01*
%TO.C,R6*%
X176960000Y-79000000D02*
X177730000Y-79000000D01*
X185040000Y-79000000D02*
X184270000Y-79000000D01*
X177730000Y-77630000D02*
X184270000Y-77630000D01*
X184270000Y-80370000D01*
X177730000Y-80370000D01*
X177730000Y-77630000D01*
%TO.C,TP2*%
X191519000Y-93345000D02*
G75*
G02*
X188719000Y-93345000I-1400000J0D01*
G01*
X188719000Y-93345000D02*
G75*
G02*
X191519000Y-93345000I1400000J0D01*
G01*
%TO.C,C3*%
X185380000Y-85130000D02*
X190620000Y-85130000D01*
X185380000Y-85467000D02*
X185380000Y-85130000D01*
X185380000Y-87870000D02*
X185380000Y-87533000D01*
X190620000Y-85130000D02*
X190620000Y-85467000D01*
X190620000Y-87533000D02*
X190620000Y-87870000D01*
X190620000Y-87870000D02*
X185380000Y-87870000D01*
%TO.C,C5*%
X195048000Y-71173621D02*
X192867000Y-71173621D01*
X195048000Y-71213621D02*
X192870000Y-71213621D01*
X195048000Y-71253621D02*
X192874000Y-71253621D01*
X195048000Y-71293621D02*
X192878000Y-71293621D01*
X195048000Y-71333621D02*
X192883000Y-71333621D01*
X195048000Y-71373621D02*
X192888000Y-71373621D01*
X195048000Y-71413621D02*
X192893000Y-71413621D01*
X195048000Y-71453621D02*
X192900000Y-71453621D01*
X195048000Y-71493621D02*
X192906000Y-71493621D01*
X195048000Y-71533621D02*
X192914000Y-71533621D01*
X195048000Y-71573621D02*
X192921000Y-71573621D01*
X195048000Y-71613621D02*
X192929000Y-71613621D01*
X195048000Y-71653621D02*
X192938000Y-71653621D01*
X195048000Y-71693621D02*
X192948000Y-71693621D01*
X195048000Y-71733621D02*
X192957000Y-71733621D01*
X195048000Y-71773621D02*
X192968000Y-71773621D01*
X195048000Y-71813621D02*
X192979000Y-71813621D01*
X195048000Y-71853621D02*
X192990000Y-71853621D01*
X195048000Y-71893621D02*
X193002000Y-71893621D01*
X195048000Y-71933621D02*
X193015000Y-71933621D01*
X195048000Y-71973621D02*
X193028000Y-71973621D01*
X195048000Y-72013621D02*
X193041000Y-72013621D01*
X195048000Y-72053621D02*
X193056000Y-72053621D01*
X195048000Y-72093621D02*
X193071000Y-72093621D01*
X195048000Y-72133621D02*
X193086000Y-72133621D01*
X195048000Y-72173621D02*
X193102000Y-72173621D01*
X195048000Y-72213621D02*
X193119000Y-72213621D01*
X195048000Y-72253621D02*
X193136000Y-72253621D01*
X195048000Y-72293621D02*
X193154000Y-72293621D01*
X195048000Y-72333621D02*
X193173000Y-72333621D01*
X195048000Y-72373621D02*
X193192000Y-72373621D01*
X195048000Y-72413621D02*
X193212000Y-72413621D01*
X195048000Y-72453621D02*
X193233000Y-72453621D01*
X195048000Y-72493621D02*
X193254000Y-72493621D01*
X195048000Y-72533621D02*
X193276000Y-72533621D01*
X195048000Y-72573621D02*
X193299000Y-72573621D01*
X195048000Y-72613621D02*
X193323000Y-72613621D01*
X195048000Y-72653621D02*
X193347000Y-72653621D01*
X195048000Y-72693621D02*
X193372000Y-72693621D01*
X195048000Y-72733621D02*
X193398000Y-72733621D01*
X195048000Y-72773621D02*
X193425000Y-72773621D01*
X195048000Y-72813621D02*
X193452000Y-72813621D01*
X195048000Y-72853621D02*
X193481000Y-72853621D01*
X195048000Y-72893621D02*
X193511000Y-72893621D01*
X195048000Y-72933621D02*
X193541000Y-72933621D01*
X195048000Y-72973621D02*
X193572000Y-72973621D01*
X195048000Y-73013621D02*
X193605000Y-73013621D01*
X195048000Y-73053621D02*
X193638000Y-73053621D01*
X195048000Y-73093621D02*
X193673000Y-73093621D01*
X195048000Y-73133621D02*
X193709000Y-73133621D01*
X195048000Y-73173621D02*
X193746000Y-73173621D01*
X195048000Y-73213621D02*
X193784000Y-73213621D01*
X196490000Y-74173621D02*
X195686000Y-74173621D01*
X196721000Y-74133621D02*
X195455000Y-74133621D01*
X196889000Y-74093621D02*
X195287000Y-74093621D01*
X197027000Y-74053621D02*
X195149000Y-74053621D01*
X197146000Y-74013621D02*
X195030000Y-74013621D01*
X197253000Y-73973621D02*
X194923000Y-73973621D01*
X197349000Y-73933621D02*
X194827000Y-73933621D01*
X197438000Y-73893621D02*
X194738000Y-73893621D01*
X197520000Y-73853621D02*
X194656000Y-73853621D01*
X197597000Y-73813621D02*
X194579000Y-73813621D01*
X197669000Y-73773621D02*
X194507000Y-73773621D01*
X197737000Y-73733621D02*
X194439000Y-73733621D01*
X197802000Y-73693621D02*
X194374000Y-73693621D01*
X197863000Y-73653621D02*
X194313000Y-73653621D01*
X197922000Y-73613621D02*
X194254000Y-73613621D01*
X197927000Y-67433380D02*
X197927000Y-68063380D01*
X197978000Y-73573621D02*
X194198000Y-73573621D01*
X198031000Y-73533621D02*
X194145000Y-73533621D01*
X198083000Y-73493621D02*
X194093000Y-73493621D01*
X198132000Y-73453621D02*
X194044000Y-73453621D01*
X198179000Y-73413621D02*
X193997000Y-73413621D01*
X198225000Y-73373621D02*
X193951000Y-73373621D01*
X198242000Y-67748380D02*
X197612000Y-67748380D01*
X198269000Y-73333621D02*
X193907000Y-73333621D01*
X198311000Y-73293621D02*
X193865000Y-73293621D01*
X198352000Y-73253621D02*
X193824000Y-73253621D01*
X198392000Y-73213621D02*
X197128000Y-73213621D01*
X198430000Y-73173621D02*
X197128000Y-73173621D01*
X198467000Y-73133621D02*
X197128000Y-73133621D01*
X198503000Y-73093621D02*
X197128000Y-73093621D01*
X198538000Y-73053621D02*
X197128000Y-73053621D01*
X198571000Y-73013621D02*
X197128000Y-73013621D01*
X198604000Y-72973621D02*
X197128000Y-72973621D01*
X198635000Y-72933621D02*
X197128000Y-72933621D01*
X198665000Y-72893621D02*
X197128000Y-72893621D01*
X198695000Y-72853621D02*
X197128000Y-72853621D01*
X198724000Y-72813621D02*
X197128000Y-72813621D01*
X198751000Y-72773621D02*
X197128000Y-72773621D01*
X198778000Y-72733621D02*
X197128000Y-72733621D01*
X198804000Y-72693621D02*
X197128000Y-72693621D01*
X198829000Y-72653621D02*
X197128000Y-72653621D01*
X198853000Y-72613621D02*
X197128000Y-72613621D01*
X198877000Y-72573621D02*
X197128000Y-72573621D01*
X198900000Y-72533621D02*
X197128000Y-72533621D01*
X198922000Y-72493621D02*
X197128000Y-72493621D01*
X198943000Y-72453621D02*
X197128000Y-72453621D01*
X198964000Y-72413621D02*
X197128000Y-72413621D01*
X198984000Y-72373621D02*
X197128000Y-72373621D01*
X199003000Y-72333621D02*
X197128000Y-72333621D01*
X199022000Y-72293621D02*
X197128000Y-72293621D01*
X199040000Y-72253621D02*
X197128000Y-72253621D01*
X199057000Y-72213621D02*
X197128000Y-72213621D01*
X199074000Y-72173621D02*
X197128000Y-72173621D01*
X199090000Y-72133621D02*
X197128000Y-72133621D01*
X199105000Y-72093621D02*
X197128000Y-72093621D01*
X199120000Y-72053621D02*
X197128000Y-72053621D01*
X199135000Y-72013621D02*
X197128000Y-72013621D01*
X199148000Y-71973621D02*
X197128000Y-71973621D01*
X199161000Y-71933621D02*
X197128000Y-71933621D01*
X199174000Y-71893621D02*
X197128000Y-71893621D01*
X199186000Y-71853621D02*
X197128000Y-71853621D01*
X199197000Y-71813621D02*
X197128000Y-71813621D01*
X199208000Y-71773621D02*
X197128000Y-71773621D01*
X199219000Y-71733621D02*
X197128000Y-71733621D01*
X199228000Y-71693621D02*
X197128000Y-71693621D01*
X199238000Y-71653621D02*
X197128000Y-71653621D01*
X199247000Y-71613621D02*
X197128000Y-71613621D01*
X199255000Y-71573621D02*
X197128000Y-71573621D01*
X199262000Y-71533621D02*
X197128000Y-71533621D01*
X199270000Y-71493621D02*
X197128000Y-71493621D01*
X199276000Y-71453621D02*
X197128000Y-71453621D01*
X199283000Y-71413621D02*
X197128000Y-71413621D01*
X199288000Y-71373621D02*
X197128000Y-71373621D01*
X199293000Y-71333621D02*
X197128000Y-71333621D01*
X199298000Y-71293621D02*
X197128000Y-71293621D01*
X199302000Y-71253621D02*
X197128000Y-71253621D01*
X199306000Y-71213621D02*
X197128000Y-71213621D01*
X199309000Y-71173621D02*
X197128000Y-71173621D01*
X199312000Y-71133621D02*
X192864000Y-71133621D01*
X199314000Y-71093621D02*
X192862000Y-71093621D01*
X199316000Y-71053621D02*
X192860000Y-71053621D01*
X199317000Y-71013621D02*
X192859000Y-71013621D01*
X199318000Y-70933621D02*
X192858000Y-70933621D01*
X199318000Y-70973621D02*
X192858000Y-70973621D01*
X199358000Y-70933621D02*
G75*
G02*
X192818000Y-70933621I-3270000J0D01*
G01*
X192818000Y-70933621D02*
G75*
G02*
X199358000Y-70933621I3270000J0D01*
G01*
%TO.C,J1*%
X144529000Y-88751000D02*
X144529000Y-92351000D01*
X146409000Y-86871000D02*
X150009000Y-86871000D01*
X146409000Y-94231000D02*
X150009000Y-94231000D01*
X151889000Y-88751000D02*
X151889000Y-92351000D01*
%TO.C,R4*%
X188500000Y-100735000D02*
X188500000Y-101505000D01*
X188500000Y-108815000D02*
X188500000Y-108045000D01*
X187130000Y-101505000D02*
X189870000Y-101505000D01*
X189870000Y-108045000D01*
X187130000Y-108045000D01*
X187130000Y-101505000D01*
%TO.C,C4*%
X205894000Y-93265000D02*
X206231000Y-93265000D01*
X205894000Y-98505000D02*
X205894000Y-93265000D01*
X206231000Y-98505000D02*
X205894000Y-98505000D01*
X208297000Y-93265000D02*
X208634000Y-93265000D01*
X208634000Y-93265000D02*
X208634000Y-98505000D01*
X208634000Y-98505000D02*
X208297000Y-98505000D01*
%TO.C,R5*%
X190143000Y-78867000D02*
X190913000Y-78867000D01*
X198223000Y-78867000D02*
X197453000Y-78867000D01*
X190913000Y-77497000D02*
X197453000Y-77497000D01*
X197453000Y-80237000D01*
X190913000Y-80237000D01*
X190913000Y-77497000D01*
%TO.C,J2*%
X215776000Y-89894000D02*
X215776000Y-93494000D01*
X217656000Y-88014000D02*
X221256000Y-88014000D01*
X217656000Y-95374000D02*
X221256000Y-95374000D01*
X223136000Y-89894000D02*
X223136000Y-93494000D01*
%TO.C,C2*%
X175073000Y-92082000D02*
X175410000Y-92082000D01*
X175073000Y-97322000D02*
X175073000Y-92082000D01*
X175410000Y-97322000D02*
X175073000Y-97322000D01*
X177476000Y-92082000D02*
X177813000Y-92082000D01*
X177813000Y-92082000D02*
X177813000Y-97322000D01*
X177813000Y-97322000D02*
X177476000Y-97322000D01*
%TO.C,R2*%
X156761000Y-110236000D02*
X159411000Y-110236000D01*
X174201000Y-110236000D02*
X171551000Y-110236000D01*
X159411000Y-107866000D02*
X171551000Y-107866000D01*
X171551000Y-112606000D01*
X159411000Y-112606000D01*
X159411000Y-107866000D01*
%TO.C,TP1*%
X173612000Y-93345000D02*
G75*
G02*
X170812000Y-93345000I-1400000J0D01*
G01*
X170812000Y-93345000D02*
G75*
G02*
X173612000Y-93345000I1400000J0D01*
G01*
%TO.C,C6*%
X185066000Y-68627000D02*
X185403000Y-68627000D01*
X185066000Y-73867000D02*
X185066000Y-68627000D01*
X185403000Y-73867000D02*
X185066000Y-73867000D01*
X187469000Y-68627000D02*
X187806000Y-68627000D01*
X187806000Y-68627000D02*
X187806000Y-73867000D01*
X187806000Y-73867000D02*
X187469000Y-73867000D01*
%TO.C,C7*%
X160555000Y-71421000D02*
X160892000Y-71421000D01*
X160555000Y-76661000D02*
X160555000Y-71421000D01*
X160892000Y-76661000D02*
X160555000Y-76661000D01*
X162958000Y-71421000D02*
X163295000Y-71421000D01*
X163295000Y-71421000D02*
X163295000Y-76661000D01*
X163295000Y-76661000D02*
X162958000Y-76661000D01*
%TO.C,TP3*%
X182400000Y-84500000D02*
G75*
G02*
X179600000Y-84500000I-1400000J0D01*
G01*
X179600000Y-84500000D02*
G75*
G02*
X182400000Y-84500000I1400000J0D01*
G01*
%TO.C,R3*%
X180848000Y-90575000D02*
X180848000Y-91345000D01*
X180848000Y-98655000D02*
X180848000Y-97885000D01*
X179478000Y-91345000D02*
X182218000Y-91345000D01*
X182218000Y-97885000D01*
X179478000Y-97885000D01*
X179478000Y-91345000D01*
%TD*%
M02*
