M48
; DRILL file KiCad 10.0.5-1-g226df246f3 date 2026-09-24T20:37:29
; FORMAT={-:-/ absolute / metric / decimal}
; #@! TF.CreationDate,2026-09-24T20:37:29-04:00
; #@! TF.GenerationSoftware,Kicad,Pcbnew,10.0.5-1-g226df246f3
; #@! TF.FileFunction,Plated,1,2,PTH
FMAT,2
METRIC
; #@! TA.AperFunction,Plated,PTH,ComponentDrill
T1C0.800
; #@! TA.AperFunction,Plated,PTH,ComponentDrill
T2C1.000
; #@! TA.AperFunction,Plated,PTH,ComponentDrill
T3C1.200
; #@! TA.AperFunction,Plated,PTH,ComponentDrill
T4C1.300
; #@! TA.AperFunction,Plated,PTH,ComponentDrill
T5C1.500
; #@! TA.AperFunction,Plated,PTH,ComponentDrill
T6C1.700
%
G90
G05
T1
X154.94Y-71.628
X154.94Y-81.788
X155.067Y-85.257
X155.067Y-90.257
X161.544Y-82.804
X161.544Y-85.344
X161.544Y-87.884
X161.925Y-71.541
X161.925Y-76.541
X172.212Y-83.693
X172.212Y-86.233
X172.212Y-88.773
X175.92Y-79.0
X176.443Y-92.202
X176.443Y-97.202
X180.848Y-89.535
X180.848Y-99.695
X185.5Y-86.5
X186.08Y-79.0
X186.436Y-68.747
X186.436Y-73.747
X188.5Y-99.695
X188.5Y-109.855
X189.103Y-78.867
X190.5Y-86.5
X196.088Y-69.684
X196.088Y-72.184
X196.5Y-99.695
X196.5Y-109.855
X196.575Y-92.075
X196.575Y-94.615
X196.575Y-97.155
X196.596Y-82.042
X196.596Y-84.582
X196.596Y-87.122
X199.263Y-78.867
X202.946Y-73.7
X202.946Y-78.7
X207.264Y-78.867
X207.264Y-89.027
X207.264Y-93.385
X207.264Y-98.385
X211.709Y-98.298
X211.709Y-108.458
T2
X172.212Y-93.345
X181.0Y-84.5
X190.119Y-93.345
X201.803Y-100.711
X202.946Y-92.202
T3
X155.321Y-110.236
X175.641Y-110.236
T4
X171.196Y-69.977
X176.276Y-69.977
T5
X148.209Y-90.551
X219.456Y-91.694
T6
X145.669Y-88.011
X145.669Y-93.091
X150.749Y-88.011
X150.749Y-93.091
X216.916Y-89.154
X216.916Y-94.234
X221.996Y-89.154
X221.996Y-94.234
M30
