%TF.GenerationSoftware,KiCad,Pcbnew,10.0.5-1-g226df246f3*%
%TF.CreationDate,2026-09-24T20:37:28-04:00*%
%TF.ProjectId,Amplifier,416d706c-6966-4696-9572-2e6b69636164,rev?*%
%TF.SameCoordinates,Original*%
%TF.FileFunction,Copper,L1,Top*%
%TF.FilePolarity,Positive*%
%FSLAX46Y46*%
G04 Gerber Fmt 4.6, Leading zero omitted, Abs format (unit mm)*
G04 Created by KiCad (PCBNEW 10.0.5-1-g226df246f3) date 2026-09-24 20:37:28*
%MOMM*%
%LPD*%
G01*
G04 APERTURE LIST*
G04 Aperture macros list*
%AMRoundRect*
0 Rectangle with rounded corners*
0 $1 Rounding radius*
0 $2 $3 $4 $5 $6 $7 $8 $9 X,Y pos of 4 corners*
0 Add a 4 corners polygon primitive as box body*
4,1,4,$2,$3,$4,$5,$6,$7,$8,$9,$2,$3,0*
0 Add four circle primitives for the rounded corners*
1,1,$1+$1,$2,$3*
1,1,$1+$1,$4,$5*
1,1,$1+$1,$6,$7*
1,1,$1+$1,$8,$9*
0 Add four rect primitives between the rounded corners*
20,1,$1+$1,$2,$3,$4,$5,0*
20,1,$1+$1,$4,$5,$6,$7,0*
20,1,$1+$1,$6,$7,$8,$9,0*
20,1,$1+$1,$8,$9,$2,$3,0*%
G04 Aperture macros list end*
%TA.AperFunction,ComponentPad*%
%ADD10C,1.600000*%
%TD*%
%TA.AperFunction,ComponentPad*%
%ADD11C,2.000000*%
%TD*%
%TA.AperFunction,ComponentPad*%
%ADD12R,1.500000X1.500000*%
%TD*%
%TA.AperFunction,ComponentPad*%
%ADD13C,1.500000*%
%TD*%
%TA.AperFunction,ComponentPad*%
%ADD14RoundRect,0.250000X1.050000X1.050000X-1.050000X1.050000X-1.050000X-1.050000X1.050000X-1.050000X0*%
%TD*%
%TA.AperFunction,ComponentPad*%
%ADD15C,2.600000*%
%TD*%
%TA.AperFunction,ComponentPad*%
%ADD16RoundRect,0.250000X-0.550000X0.550000X-0.550000X-0.550000X0.550000X-0.550000X0.550000X0.550000X0*%
%TD*%
%TA.AperFunction,ComponentPad*%
%ADD17C,2.050000*%
%TD*%
%TA.AperFunction,ComponentPad*%
%ADD18C,2.250000*%
%TD*%
%TA.AperFunction,ComponentPad*%
%ADD19C,2.400000*%
%TD*%
%TA.AperFunction,Conductor*%
%ADD20C,0.500000*%
%TD*%
G04 APERTURE END LIST*
D10*
%TO.P,R9,1*%
%TO.N,/OUT*%
X211709000Y-98298000D03*
%TO.P,R9,2*%
%TO.N,/GND*%
X211709000Y-108458000D03*
%TD*%
D11*
%TO.P,TP4,1,1_1*%
%TO.N,/Q4_C*%
X202946000Y-92202000D03*
%TD*%
D12*
%TO.P,Q3,1,E_1*%
%TO.N,/Q4_C*%
X196596000Y-87122000D03*
D13*
%TO.P,Q3,2,B_2*%
%TO.N,/Q3_B*%
X196596000Y-84582000D03*
%TO.P,Q3,3,C_3*%
%TO.N,/Q3_C*%
X196596000Y-82042000D03*
%TD*%
D12*
%TO.P,Q4,1,E_1*%
%TO.N,/Q4_E*%
X196575000Y-97155000D03*
D13*
%TO.P,Q4,2,B_2*%
%TO.N,/Q4_B*%
X196575000Y-94615000D03*
%TO.P,Q4,3,C_3*%
%TO.N,/Q4_C*%
X196575000Y-92075000D03*
%TD*%
D14*
%TO.P,J3,1,Pin_1_1*%
%TO.N,/+24V*%
X176276000Y-69977000D03*
D15*
%TO.P,J3,2,Pin_2_2*%
%TO.N,/GND*%
X171196000Y-69977000D03*
%TD*%
D10*
%TO.P,R1,1*%
%TO.N,/+24V*%
X154940000Y-71628000D03*
%TO.P,R1,2*%
%TO.N,/Q1_B*%
X154940000Y-81788000D03*
%TD*%
%TO.P,C8,1*%
%TO.N,/+24V*%
X202946000Y-78700000D03*
%TO.P,C8,2*%
%TO.N,/GND*%
X202946000Y-73700000D03*
%TD*%
D12*
%TO.P,Q2,1,E_1*%
%TO.N,/Q2_E*%
X172212000Y-88773000D03*
D13*
%TO.P,Q2,2,B_2*%
%TO.N,/Q2_B*%
X172212000Y-86233000D03*
%TO.P,Q2,3,C_3*%
%TO.N,/+24V*%
X172212000Y-83693000D03*
%TD*%
D10*
%TO.P,R7,1*%
%TO.N,/+24V*%
X207264000Y-78867000D03*
%TO.P,R7,2*%
%TO.N,/Q3_C*%
X207264000Y-89027000D03*
%TD*%
%TO.P,R8,1*%
%TO.N,/Q4_E*%
X196500000Y-99695000D03*
%TO.P,R8,2*%
%TO.N,/GND*%
X196500000Y-109855000D03*
%TD*%
D11*
%TO.P,TP5,1,1_1*%
%TO.N,/Q3_C*%
X201803000Y-100711000D03*
%TD*%
D10*
%TO.P,C1,1*%
%TO.N,/Q1_B*%
X155067000Y-85257000D03*
%TO.P,C1,2*%
%TO.N,/IN*%
X155067000Y-90257000D03*
%TD*%
D12*
%TO.P,Q1,1,E_1*%
%TO.N,/Q2_B*%
X161544000Y-87884000D03*
D13*
%TO.P,Q1,2,B_2*%
%TO.N,/Q1_B*%
X161544000Y-85344000D03*
%TO.P,Q1,3,C_3*%
%TO.N,/+24V*%
X161544000Y-82804000D03*
%TD*%
D10*
%TO.P,R6,1*%
%TO.N,/Q3_B*%
X186080000Y-79000000D03*
%TO.P,R6,2*%
%TO.N,/GND*%
X175920000Y-79000000D03*
%TD*%
D11*
%TO.P,TP2,1,1_1*%
%TO.N,/Q4_B*%
X190119000Y-93345000D03*
%TD*%
D10*
%TO.P,C3,1*%
%TO.N,/Q3_B*%
X190500000Y-86500000D03*
%TO.P,C3,2*%
%TO.N,/GND*%
X185500000Y-86500000D03*
%TD*%
D16*
%TO.P,C5,1*%
%TO.N,/+24V*%
X196088000Y-69683621D03*
D10*
%TO.P,C5,2*%
%TO.N,/GND*%
X196088000Y-72183621D03*
%TD*%
D17*
%TO.P,J1,1,In_1*%
%TO.N,/IN*%
X148209000Y-90551000D03*
D18*
%TO.P,J1,2,Ext_2*%
%TO.N,/GND*%
X145669000Y-88011000D03*
X145669000Y-93091000D03*
X150749000Y-88011000D03*
X150749000Y-93091000D03*
%TD*%
D10*
%TO.P,R4,1*%
%TO.N,/Q4_B*%
X188500000Y-99695000D03*
%TO.P,R4,2*%
%TO.N,/GND*%
X188500000Y-109855000D03*
%TD*%
%TO.P,C4,1*%
%TO.N,/Q3_C*%
X207264000Y-93385000D03*
%TO.P,C4,2*%
%TO.N,/OUT*%
X207264000Y-98385000D03*
%TD*%
%TO.P,R5,1*%
%TO.N,/+24V*%
X199263000Y-78867000D03*
%TO.P,R5,2*%
%TO.N,/Q3_B*%
X189103000Y-78867000D03*
%TD*%
D17*
%TO.P,J2,1,In_1*%
%TO.N,/OUT*%
X219456000Y-91694000D03*
D18*
%TO.P,J2,2,Ext_2*%
%TO.N,/GND*%
X216916000Y-89154000D03*
X216916000Y-94234000D03*
X221996000Y-89154000D03*
X221996000Y-94234000D03*
%TD*%
D10*
%TO.P,C2,1*%
%TO.N,/Q2_E*%
X176443000Y-92202000D03*
%TO.P,C2,2*%
%TO.N,/Q4_B*%
X176443000Y-97202000D03*
%TD*%
D19*
%TO.P,R2,1*%
%TO.N,/Q2_E*%
X175641000Y-110236000D03*
%TO.P,R2,2*%
%TO.N,/GND*%
X155321000Y-110236000D03*
%TD*%
D11*
%TO.P,TP1,1,1_1*%
%TO.N,/Q2_E*%
X172212000Y-93345000D03*
%TD*%
D10*
%TO.P,C6,1*%
%TO.N,/+24V*%
X186436000Y-68747000D03*
%TO.P,C6,2*%
%TO.N,/GND*%
X186436000Y-73747000D03*
%TD*%
%TO.P,C7,1*%
%TO.N,/+24V*%
X161925000Y-71541000D03*
%TO.P,C7,2*%
%TO.N,/GND*%
X161925000Y-76541000D03*
%TD*%
D11*
%TO.P,TP3,1,1_1*%
%TO.N,/Q3_B*%
X181000000Y-84500000D03*
%TD*%
D10*
%TO.P,R3,1*%
%TO.N,/+24V*%
X180848000Y-89535000D03*
%TO.P,R3,2*%
%TO.N,/Q4_B*%
X180848000Y-99695000D03*
%TD*%
%TO.N,/OUT*%
D20*
X219456000Y-91694000D02*
X216806000Y-91694000D01*
X207264000Y-98385000D02*
X211622000Y-98385000D01*
X216806000Y-91694000D02*
X211709000Y-96791000D01*
X211622000Y-98385000D02*
X211709000Y-98298000D01*
X211709000Y-96791000D02*
X211709000Y-98298000D01*
%TO.N,/Q4_C*%
X197552000Y-92202000D02*
X202946000Y-92202000D01*
X196575000Y-92075000D02*
X196575000Y-87143000D01*
X196575000Y-92075000D02*
X197425000Y-92075000D01*
X197425000Y-92075000D02*
X197552000Y-92202000D01*
X196575000Y-87143000D02*
X196596000Y-87122000D01*
%TO.N,/Q3_B*%
X186213000Y-78867000D02*
X186080000Y-79000000D01*
X186080000Y-79420000D02*
X181000000Y-84500000D01*
X186080000Y-79000000D02*
X186080000Y-79420000D01*
X190500000Y-86500000D02*
X190500000Y-80264000D01*
X192418000Y-84582000D02*
X190500000Y-86500000D01*
X190500000Y-80264000D02*
X189103000Y-78867000D01*
X196596000Y-84582000D02*
X192418000Y-84582000D01*
X189103000Y-78867000D02*
X186213000Y-78867000D01*
%TO.N,/Q3_C*%
X207264000Y-89027000D02*
X203581000Y-89027000D01*
X203581000Y-89027000D02*
X196596000Y-82042000D01*
X207264000Y-95250000D02*
X201803000Y-100711000D01*
X207264000Y-93385000D02*
X207264000Y-89027000D01*
X207264000Y-93385000D02*
X207264000Y-95250000D01*
%TO.N,/Q4_E*%
X196575000Y-99620000D02*
X196500000Y-99695000D01*
X196575000Y-97155000D02*
X196575000Y-99620000D01*
%TO.N,/Q4_B*%
X188500000Y-94964000D02*
X190119000Y-93345000D01*
X191389000Y-94615000D02*
X196575000Y-94615000D01*
X180848000Y-99695000D02*
X188500000Y-99695000D01*
X178355000Y-97202000D02*
X180848000Y-99695000D01*
X176443000Y-97202000D02*
X178355000Y-97202000D01*
X188500000Y-99695000D02*
X188500000Y-94964000D01*
X190119000Y-93345000D02*
X191389000Y-94615000D01*
%TO.N,/+24V*%
X203113000Y-78867000D02*
X202946000Y-78700000D01*
X154940000Y-76200000D02*
X161544000Y-82804000D01*
X162433000Y-83693000D02*
X161544000Y-82804000D01*
X199263000Y-72858621D02*
X196088000Y-69683621D01*
X207264000Y-78867000D02*
X203113000Y-78867000D01*
X178054000Y-89535000D02*
X172212000Y-83693000D01*
X196088000Y-69683621D02*
X187372621Y-69683621D01*
X202946000Y-78700000D02*
X199430000Y-78700000D01*
X180848000Y-89535000D02*
X178054000Y-89535000D01*
X199263000Y-78867000D02*
X199263000Y-72858621D01*
X161925000Y-71541000D02*
X162724999Y-72340999D01*
X187372621Y-69683621D02*
X186436000Y-68747000D01*
X172212000Y-83693000D02*
X162433000Y-83693000D01*
X154940000Y-71628000D02*
X161838000Y-71628000D01*
X154940000Y-71628000D02*
X154940000Y-76200000D01*
X161838000Y-71628000D02*
X161925000Y-71541000D01*
X199430000Y-78700000D02*
X199263000Y-78867000D01*
X186436000Y-68747000D02*
X177506000Y-68747000D01*
X162724999Y-72340999D02*
X173912001Y-72340999D01*
X177506000Y-68747000D02*
X176276000Y-69977000D01*
X173912001Y-72340999D02*
X176276000Y-69977000D01*
%TO.N,/Q1_B*%
X155067000Y-85257000D02*
X155067000Y-81915000D01*
X154940000Y-81788000D02*
X157988000Y-81788000D01*
X157988000Y-81788000D02*
X161544000Y-85344000D01*
X155067000Y-81915000D02*
X154940000Y-81788000D01*
%TO.N,/Q2_E*%
X175300000Y-93345000D02*
X176443000Y-92202000D01*
X172212000Y-93345000D02*
X175300000Y-93345000D01*
X175641000Y-110236000D02*
X172212000Y-106807000D01*
X172212000Y-106807000D02*
X172212000Y-93345000D01*
X172212000Y-88773000D02*
X172212000Y-93345000D01*
%TO.N,/Q2_B*%
X170561000Y-87884000D02*
X172212000Y-86233000D01*
X161544000Y-87884000D02*
X170561000Y-87884000D01*
%TO.N,/IN*%
X148209000Y-90551000D02*
X154773000Y-90551000D01*
X154773000Y-90551000D02*
X155067000Y-90257000D01*
%TD*%
M02*
